<svg width="78" height="78" viewBox="0 0 78 78" fill="none" xmlns="http://www.w3.org/2000/svg">
<path d="M39 7.31256C40.8978 7.2984 42.7955 7.28759 44.6933 7.28099C45.5747 7.27781 46.456 7.27351 47.3374 7.26659C48.1888 7.25994 49.0403 7.25632 49.8918 7.25474C50.2157 7.25362 50.5396 7.25143 50.8635 7.24813C53.1929 7.22532 55.0527 7.29722 56.8242 8.98834C57.4809 9.67619 57.9139 10.3416 58.2257 11.2426C58.2778 11.3916 58.33 11.5406 58.3838 11.6941C58.4221 11.8067 58.4605 11.9192 58.5 12.0352C58.6509 12.0358 58.8017 12.0363 58.9572 12.0369C60.3848 12.0425 61.8123 12.0514 63.2399 12.0632C63.9737 12.0692 64.7075 12.0741 65.4413 12.0765C66.1505 12.0788 66.8597 12.0841 67.569 12.0913C67.8384 12.0936 68.1079 12.0948 68.3774 12.0949C70.5334 12.097 72.2562 12.3068 73.8867 13.8633C75.2143 15.2541 75.6565 16.7764 75.6413 18.6681C75.6429 18.9185 75.6429 18.9185 75.6446 19.174C75.6472 19.7207 75.6455 20.2673 75.6434 20.814C75.6438 21.197 75.6444 21.58 75.6452 21.9629C75.6461 22.7635 75.6448 23.5641 75.6419 24.3646C75.6386 25.286 75.6397 26.2073 75.6431 27.1287C75.6462 28.0205 75.6458 28.9122 75.644 29.804C75.6436 30.181 75.6441 30.5581 75.6455 30.9351C75.6471 31.4633 75.6447 31.9913 75.6413 32.5195C75.6426 32.6732 75.6438 32.827 75.6451 32.9854C75.625 34.6914 75.0666 36.0884 73.8867 37.3243C72.5165 38.6323 71.0121 39.1002 69.1432 39.0596C68.9901 39.0587 68.8369 39.0578 68.6791 39.057C68.1964 39.0536 67.7138 39.0459 67.2312 39.0381C66.9012 39.0351 66.5712 39.0323 66.2413 39.0298C65.4381 39.0231 64.6351 39.013 63.832 39.0001C64.6166 40.114 65.3992 41.2151 66.279 42.2564C68.1619 44.5649 69.4807 47.2606 69.4912 50.2903C69.4917 50.3958 69.4923 50.5013 69.4929 50.61C69.4945 50.9615 69.4951 51.3131 69.4957 51.6646C69.4967 51.9174 69.4977 52.1702 69.4987 52.423C69.5019 53.251 69.5035 54.0789 69.505 54.9069C69.5057 55.1922 69.5063 55.4775 69.5069 55.7628C69.5098 57.1022 69.512 58.4415 69.5133 59.7809C69.5148 61.3272 69.5188 62.8734 69.5249 64.4196C69.5295 65.6153 69.5318 66.8109 69.5323 68.0065C69.5326 68.7205 69.534 69.4346 69.5378 70.1486C69.5414 70.8196 69.542 71.4906 69.5405 72.1616C69.5404 72.408 69.5413 72.6544 69.5434 72.9007C69.5461 73.2368 69.5451 73.5726 69.543 73.9086C69.5434 74.0967 69.5438 74.2849 69.5442 74.4787C69.4522 75.0571 69.3096 75.2004 68.8594 75.5626C68.4994 75.6389 68.4994 75.6389 68.092 75.6392C67.8585 75.6416 67.8585 75.6416 67.6202 75.6441C67.4495 75.6427 67.2787 75.6413 67.1028 75.6399C66.9212 75.6409 66.7396 75.6418 66.5524 75.6428C66.0481 75.6448 65.5438 75.6441 65.0395 75.6422C64.4956 75.6408 63.9517 75.643 63.4079 75.6446C62.342 75.6474 61.2762 75.6468 60.2104 75.645C59.3436 75.6436 58.4769 75.6434 57.6102 75.6441C57.4253 75.6442 57.4253 75.6442 57.2365 75.6444C56.986 75.6446 56.7355 75.6448 56.485 75.645C54.1341 75.6467 51.7833 75.6447 49.4324 75.6414C47.4171 75.6387 45.4018 75.6392 43.3865 75.642C41.0457 75.6453 38.705 75.6465 36.3643 75.6447C36.1144 75.6445 35.8644 75.6443 35.6145 75.6441C35.4915 75.644 35.3686 75.6439 35.2419 75.6438C34.3772 75.6433 33.5125 75.6442 32.6477 75.6456C31.5925 75.6473 30.5372 75.6469 29.482 75.6436C28.944 75.642 28.406 75.6414 27.868 75.6434C27.2835 75.6456 26.6991 75.643 26.1147 75.6399C25.8621 75.642 25.8621 75.642 25.6044 75.6441C23.8557 75.6265 22.4465 75.0999 21.1758 73.8868C18.4184 70.9984 19.5 67.2422 19.5 63.3751C29.8563 63.3751 40.2126 63.3751 50.8828 63.3751C51.109 62.6964 51.109 62.6964 51.3398 62.004C51.4857 61.6961 51.6354 61.3898 51.7969 61.0899C51.662 60.956 51.662 60.956 51.5244 60.8195C50.6742 59.9754 49.8247 59.1305 48.976 58.2849C48.5398 57.8502 48.1033 57.4158 47.6661 56.9821C47.2436 56.563 46.8219 56.1431 46.4007 55.7227C46.2405 55.563 46.0799 55.4035 45.9191 55.2444C44.3616 53.7022 43.146 52.2712 43.0371 49.9688C43.1262 48.2003 43.815 46.8124 45.0592 45.5901C46.1485 44.6663 47.6945 44.2011 49.1166 44.275C51.5233 44.6229 52.9111 46.0034 54.5581 47.6837C55.0043 48.1361 55.4505 48.5886 55.9101 49.0547C55.9101 47.6471 55.9101 46.2394 55.9101 44.7891C55.7593 44.8897 55.6085 44.9902 55.4531 45.0938C54.4143 45.1927 54.4143 45.1927 53.8535 44.8843C53.2096 43.7575 53.7502 42.1498 54.0059 40.9615C54.0422 40.7867 54.0785 40.6119 54.1159 40.4319C54.2049 40.0051 54.2951 39.5786 54.3867 39.1524C54.1919 39.1516 54.1919 39.1516 53.9931 39.1507C52.7628 39.1449 51.5326 39.1362 50.3023 39.1244C49.6699 39.1184 49.0376 39.1135 48.4052 39.1111C47.7938 39.1088 47.1824 39.1035 46.5709 39.0963C46.3389 39.0941 46.1068 39.0928 45.8748 39.0927C43.8216 39.0904 42.199 38.7784 40.6758 37.3243C39.3481 35.9336 38.906 34.4113 38.9211 32.5195C38.9201 32.3526 38.919 32.1856 38.9179 32.0136C38.9152 31.4669 38.917 30.9203 38.9191 30.3736C38.9186 29.9906 38.9181 29.6077 38.9173 29.2247C38.9164 28.4241 38.9176 27.6236 38.9205 26.823C38.9239 25.9016 38.9228 24.9803 38.9194 24.0589C38.9163 23.1671 38.9167 22.2754 38.9184 21.3836C38.9189 21.0066 38.9184 20.6296 38.9169 20.2525C38.9154 19.7243 38.9178 19.1963 38.9211 18.6681C38.9199 18.5144 38.9187 18.3606 38.9174 18.2022C38.9375 16.4963 39.4959 15.0993 40.6758 13.8633C42.3967 12.2205 44.2291 12.0958 46.4857 12.0947C46.7497 12.0924 47.0137 12.0899 47.2777 12.0871C47.9672 12.0805 48.6566 12.0774 49.3461 12.0751C50.0519 12.0721 50.7576 12.0657 51.4633 12.0596C52.844 12.0482 54.2247 12.0405 55.6055 12.0352C54.9923 11.1018 54.4335 10.3887 53.3203 10.0547C52.5656 9.90025 51.8385 9.87663 51.0718 9.87112C50.9409 9.86961 50.81 9.86811 50.6752 9.86655C50.2449 9.86176 49.8146 9.85797 49.3844 9.8542C49.0851 9.85106 48.7858 9.84787 48.4866 9.84461C47.7007 9.83622 46.9148 9.82868 46.1289 9.82132C45.3262 9.81365 44.5235 9.80518 43.7209 9.79677C42.1472 9.78041 40.5736 9.76503 39 9.75006C39 8.94568 39 8.14131 39 7.31256ZM42.3135 16.0628C41.4761 17.0904 41.4137 18.2001 41.4202 19.4899C41.4202 19.6074 41.4202 19.7249 41.4201 19.846C41.4202 20.2317 41.4214 20.6175 41.4226 21.0033C41.4229 21.2718 41.4231 21.5403 41.4233 21.8088C41.4238 22.5136 41.4253 23.2184 41.427 23.9231C41.4286 24.6431 41.4293 25.363 41.4301 26.083C41.4317 27.4941 41.4343 28.9053 41.4375 30.3165C42.5075 29.6119 42.5075 29.6119 43.5406 28.8549C43.6658 28.7587 43.791 28.6625 43.92 28.5634C44.0497 28.4632 44.1794 28.363 44.313 28.2598C45.4101 27.418 46.5126 26.5848 47.6265 25.7652C47.7482 25.6755 47.8699 25.5859 47.9953 25.4935C49.4341 24.4372 49.4341 24.4372 50.2411 24.4608C50.9062 24.5923 51.3824 25.0265 51.9016 25.4415C52.0259 25.5369 52.1502 25.6323 52.2783 25.7307C52.5429 25.9342 52.8066 26.1389 53.0694 26.3448C53.7319 26.863 54.4027 27.3701 55.0723 27.879C55.3387 28.0819 55.6051 28.2848 55.8715 28.4877C56.0688 28.6379 56.0688 28.6379 56.2701 28.7912C56.5421 28.9987 56.8137 29.2069 57.0849 29.4156C57.4823 29.7209 57.8814 30.0237 58.281 30.326C58.4016 30.4196 58.5222 30.5131 58.6464 30.6095C58.7585 30.6937 58.8707 30.7778 58.9862 30.8645C59.0839 30.9392 59.1816 31.0138 59.2823 31.0907C59.6556 31.2744 59.7862 31.2092 60.1758 31.0782C60.4862 30.9042 60.4862 30.9042 60.799 30.6833C60.9806 30.5598 60.9806 30.5598 61.1659 30.4338C61.2955 30.3446 61.4252 30.2554 61.5588 30.1635C61.8358 29.9765 62.1129 29.7895 62.3901 29.6027C62.8259 29.3076 63.261 29.0118 63.6948 28.7139C64.1142 28.4265 64.5358 28.1427 64.9579 27.8593C65.0864 27.7698 65.2148 27.6803 65.3471 27.5881C66.1581 27.0484 66.6643 26.7954 67.6406 26.9649C68.1026 27.1734 68.5057 27.4419 68.9207 27.7314C69.0369 27.8092 69.1532 27.8869 69.273 27.9671C69.6416 28.2144 70.0074 28.4655 70.3733 28.7169C70.7435 28.9674 71.1142 29.2171 71.485 29.4667C71.7151 29.6219 71.9446 29.7779 72.1737 29.9346C72.6147 30.3001 72.6147 30.3001 73.125 30.4688C73.1321 28.9034 73.1375 27.3381 73.1408 25.7727C73.1424 25.0457 73.1445 24.3188 73.148 23.5918C73.1513 22.8895 73.1531 22.1872 73.1539 21.4849C73.1545 21.2177 73.1556 20.9505 73.1572 20.6833C73.243 18.1897 73.243 18.1897 72.2109 15.9962C71.082 14.8752 70.0244 14.607 68.4427 14.6047C68.3433 14.6043 68.244 14.604 68.1416 14.6036C67.8108 14.6027 67.48 14.6028 67.1492 14.6029C66.9111 14.6025 66.6731 14.602 66.435 14.6014C65.7897 14.6 65.1445 14.5997 64.4992 14.5996C64.0956 14.5995 63.692 14.5991 63.2885 14.5987C61.8793 14.5973 60.4701 14.5967 59.061 14.5968C57.7494 14.5969 56.4379 14.5953 55.1263 14.5929C53.9986 14.5909 52.8709 14.5901 51.7432 14.5902C51.0705 14.5902 50.3977 14.5898 49.7249 14.5882C49.0918 14.5867 48.4587 14.5867 47.8256 14.5878C47.5941 14.588 47.3625 14.5876 47.1309 14.5867C45.2544 14.5797 43.6533 14.5777 42.3135 16.0628ZM49.1886 27.7278C49.06 27.8269 48.9315 27.9259 48.7991 28.028C48.591 28.1899 48.591 28.1899 48.3787 28.355C48.087 28.5798 47.7952 28.8043 47.5033 29.0287C47.3552 29.1425 47.2072 29.2563 47.0546 29.3735C46.4069 29.8674 45.751 30.3496 45.0937 30.8306C43.8235 31.7632 43.8235 31.7632 42.561 32.7064C42.4051 32.8232 42.2492 32.9401 42.0885 33.0604C41.706 33.3434 41.706 33.3434 41.5898 33.8204C41.8698 34.8344 42.5889 35.5074 43.418 36.1055C44.3011 36.5681 45.2735 36.5851 46.2531 36.5866C46.3654 36.5874 46.4777 36.5881 46.5935 36.5889C46.8359 36.5906 47.0783 36.5919 47.3206 36.5929C47.7042 36.5947 48.0877 36.5977 48.4712 36.601C49.5611 36.6104 50.651 36.6186 51.7409 36.6237C52.4087 36.6269 53.0765 36.6323 53.7443 36.6391C53.9986 36.6412 54.2529 36.6425 54.5073 36.643C54.8621 36.6438 55.2168 36.6473 55.5717 36.6515C55.6768 36.651 55.782 36.6505 55.8904 36.6501C56.3255 36.6577 56.6072 36.6682 56.9657 36.9271C57.3679 37.5305 57.1757 38.4347 57.0539 39.1125C56.9984 39.3691 56.9394 39.6249 56.876 39.8796C56.8197 40.2481 56.8772 40.4735 56.9766 40.8282C57.0453 40.7786 57.114 40.7289 57.1848 40.6778C57.2822 40.6074 57.3796 40.5371 57.48 40.4646C57.5898 40.3853 57.6996 40.306 57.8127 40.2243C58.057 40.0478 58.3014 39.8714 58.5458 39.695C59.1979 39.2242 59.8497 38.7529 60.5007 38.2806C60.625 38.1905 60.7494 38.1004 60.8775 38.0076C61.1178 37.8334 61.3579 37.6591 61.598 37.4845C61.7612 37.3663 61.7612 37.3663 61.9277 37.2457C62.0715 37.1414 62.0715 37.1414 62.2181 37.0349C62.6334 36.7482 62.8956 36.6948 63.3938 36.6885C63.5884 36.6854 63.5884 36.6854 63.787 36.6822C63.9277 36.6806 64.0685 36.6791 64.2135 36.6774C64.5117 36.6724 64.81 36.6673 65.1082 36.6622C65.5782 36.655 66.0482 36.6483 66.5182 36.6423C66.9719 36.6362 67.4256 36.6283 67.8792 36.6203C68.0178 36.619 68.1564 36.6177 68.2992 36.6164C69.7263 36.5892 70.9359 36.4371 72.002 35.4093C72.5628 34.8067 72.7538 34.3184 72.9726 33.5157C72.186 32.9673 71.397 32.4225 70.6062 31.8801C70.3375 31.6952 70.0693 31.5094 69.8017 31.3228C69.417 31.0548 69.0304 30.7898 68.6433 30.5253C68.524 30.4412 68.4046 30.3572 68.2816 30.2705C68.1688 30.1942 68.056 30.118 67.9398 30.0394C67.8414 29.9714 67.743 29.9034 67.6415 29.8334C67.2241 29.6609 67.0006 29.7241 66.5742 29.8594C66.2469 30.0304 66.2469 30.0304 65.9337 30.2543C65.8126 30.3367 65.6916 30.419 65.5669 30.5038C65.438 30.593 65.3091 30.6822 65.1763 30.7741C64.8998 30.9611 64.6232 31.1481 64.3465 31.335C63.9125 31.6301 63.4791 31.926 63.0468 32.2237C62.6284 32.5111 62.2078 32.7949 61.7867 33.0783C61.6587 33.1678 61.5308 33.2573 61.399 33.3495C60.5914 33.8891 60.0836 34.1118 59.1094 33.9727C58.7561 33.8156 58.7561 33.8156 58.4696 33.5919C58.3595 33.5082 58.2493 33.4245 58.1358 33.3383C58.0203 33.246 57.9049 33.1537 57.7859 33.0587C57.6616 32.9632 57.5373 32.8678 57.4092 32.7694C57.1446 32.5659 56.8809 32.3612 56.6181 32.1553C56.0878 31.7405 55.552 31.3333 55.016 30.9258C54.616 30.6217 54.2166 30.3168 53.8172 30.0118C53.0108 29.3976 52.201 28.7882 51.3874 28.1837C51.2027 28.0452 51.2027 28.0452 51.0143 27.904C50.8446 27.7785 50.8446 27.7785 50.6715 27.6504C50.5226 27.5397 50.5226 27.5397 50.3706 27.4267C49.8556 27.1025 49.6197 27.393 49.1886 27.7278ZM60.9042 41.1037C60.7747 41.1924 60.6453 41.281 60.512 41.3724C60.3759 41.4662 60.2398 41.5599 60.0996 41.6566C59.9635 41.7497 59.8274 41.8429 59.6872 41.9389C59.0657 42.339 59.0657 42.339 58.5 42.8087C58.2968 44.2033 58.2616 45.6287 58.2143 47.0362C58.2108 47.139 58.2072 47.2417 58.2035 47.3476C58.1309 49.6998 58.1188 51.8584 59.7775 53.703C60.7259 54.6601 61.789 55.483 62.918 56.2149C62.6734 56.7345 62.3992 57.0708 61.9849 57.4717C61.8745 57.5794 61.7641 57.687 61.6504 57.7979C61.566 57.8788 61.4815 57.9597 61.3945 58.043C60.9661 57.848 60.6563 57.6467 60.3268 57.3115C60.1974 57.1811 60.1974 57.1811 60.0654 57.0481C59.9263 56.9055 59.9263 56.9055 59.7843 56.76C59.6852 56.6597 59.586 56.5593 59.4838 56.4559C59.2687 56.2381 59.0539 56.02 58.8395 55.8016C58.4995 55.4556 58.1584 55.1108 57.817 54.7664C56.8463 53.7869 55.8771 52.8059 54.9102 51.8227C54.3185 51.2211 53.7249 50.6215 53.1301 50.0229C52.9042 49.7948 52.679 49.566 52.4545 49.3365C52.1399 49.0149 51.823 48.6957 51.5054 48.377C51.4139 48.2822 51.3224 48.1875 51.2281 48.0899C50.5173 47.384 49.813 46.9691 48.7869 46.8892C47.7079 47.0156 47.1131 47.3245 46.3506 48.1216C45.7328 48.9797 45.6698 49.6199 45.7519 50.6448C45.9861 51.5276 46.6401 52.1618 47.2728 52.7894C47.3514 52.8678 47.43 52.9462 47.511 53.027C47.7684 53.2834 48.0268 53.5387 48.2852 53.7941C48.4651 53.973 48.6449 54.152 48.8246 54.331C49.296 54.8004 49.7682 55.2689 50.2407 55.7372C50.9987 56.4886 51.7557 57.2411 52.5122 57.994C52.7765 58.2568 53.0414 58.5191 53.3064 58.7814C53.4677 58.9416 53.629 59.1019 53.7902 59.2622C53.9315 59.4022 54.0728 59.5422 54.2183 59.6865C54.6652 60.156 54.7794 60.5084 54.7747 61.1637C54.6442 61.7641 54.2995 62.2157 53.9621 62.7219C52.6424 64.7569 52.2898 67.2182 52.7109 69.5831C53.051 70.9546 53.051 70.9546 54.2344 73.1251C58.4573 73.1251 62.6803 73.1251 67.0312 73.1251C67.0401 69.3163 67.0401 69.3163 67.0461 65.5076C67.0479 63.9527 67.05 62.3978 67.0542 60.8429C67.0573 59.7101 67.0592 58.5773 67.0599 57.4445C67.0603 56.8457 67.0612 56.247 67.0635 55.6483C67.0802 50.9904 66.9185 47.3396 63.9076 43.5557C63.6501 43.228 63.398 42.8965 63.1465 42.5641C63.0114 42.3857 63.0114 42.3857 62.8737 42.2038C62.6954 41.9681 62.5173 41.7322 62.3395 41.4961C62.2584 41.3894 62.1773 41.2827 62.0938 41.1727C62.0213 41.0768 61.9488 40.981 61.8741 40.8822C61.7875 40.78 61.7875 40.78 61.6992 40.6758C61.4015 40.6758 61.1393 40.9423 60.9042 41.1037ZM21.9375 65.8126C21.7114 68.9546 21.7114 68.9546 22.8516 71.754C24.0007 72.8949 25.0734 73.1446 26.6811 73.1434C26.84 73.1436 26.84 73.1436 27.002 73.1438C27.355 73.144 27.708 73.1432 28.0609 73.1424C28.3147 73.1423 28.5685 73.1423 28.8223 73.1424C29.51 73.1425 30.1976 73.1416 30.8853 73.1405C31.6045 73.1395 32.3236 73.1395 33.0427 73.1393C34.404 73.1388 35.7652 73.1376 37.1264 73.136C38.6764 73.1343 40.2263 73.1335 41.7763 73.1327C44.9641 73.1311 48.152 73.1285 51.3398 73.1251C51.2445 72.8617 51.2445 72.8617 51.1472 72.593C51.0634 72.3592 50.9797 72.1253 50.8959 71.8914C50.8331 71.7185 50.8331 71.7185 50.7691 71.542C50.0797 69.61 50.1211 67.9172 50.1211 65.8126C40.8205 65.8126 31.5199 65.8126 21.9375 65.8126Z" fill="white"/>
<path d="M9.58932 2.35864C9.83 2.35781 10.0707 2.35673 10.3113 2.35541C10.9604 2.35265 11.6094 2.3537 12.2584 2.35564C12.9404 2.35719 13.6224 2.35575 14.3043 2.35479C15.4492 2.35369 16.594 2.35514 17.7388 2.35805C19.059 2.36136 20.379 2.36029 21.6992 2.35693C22.8364 2.35416 23.9735 2.35378 25.1107 2.35537C25.7882 2.35632 26.4658 2.35646 27.1433 2.35444C27.7806 2.35267 28.4177 2.35392 29.055 2.35742C29.2877 2.35822 29.5204 2.358 29.753 2.35665C31.7825 2.34594 33.3829 2.67767 34.8867 4.11327C36.2143 5.504 36.6565 7.02629 36.6413 8.91805C36.6424 9.085 36.6435 9.25194 36.6446 9.42395C36.6472 9.97066 36.6455 10.5172 36.6434 11.064C36.6438 11.4469 36.6444 11.8299 36.6452 12.2129C36.6461 13.0134 36.6449 13.814 36.6419 14.6146C36.6386 15.536 36.6397 16.4573 36.6431 17.3787C36.6462 18.2704 36.6458 19.1621 36.644 20.0539C36.6436 20.4309 36.6441 20.808 36.6456 21.185C36.6471 21.7132 36.6447 22.2413 36.6413 22.7694C36.6426 22.9232 36.6438 23.0769 36.6451 23.2353C36.625 24.9413 36.0666 26.3383 34.8867 27.5742C33.3366 29.054 31.6975 29.3409 29.61 29.3428C29.4007 29.3451 29.1913 29.3477 28.9819 29.3505C28.4367 29.3571 27.8915 29.3601 27.3463 29.3625C26.7876 29.3655 26.2289 29.3718 25.6702 29.3779C24.5783 29.3893 23.4865 29.397 22.3945 29.4023C22.4176 29.5097 22.4407 29.6171 22.4645 29.7278C22.5697 30.222 22.6726 30.7167 22.7754 31.2114C22.8117 31.3803 22.8481 31.5492 22.8855 31.7232C23.4129 34.2852 23.4129 34.2851 22.9277 35.1343C22.392 35.4289 21.9186 35.4491 21.3281 35.3437C20.8295 35.1073 20.4001 34.7947 19.957 34.4678C19.8308 34.378 19.7045 34.2883 19.5744 34.1958C18.6794 33.5558 17.7994 32.8948 16.9244 32.2278C15.7637 31.3474 14.5547 30.5372 13.3459 29.7248C13.1016 29.5547 13.1016 29.5547 12.9492 29.4023C12.5407 29.3854 12.1355 29.3777 11.7269 29.3756C11.4712 29.372 11.2155 29.3683 10.9598 29.3645C10.5571 29.3592 10.1544 29.3547 9.75156 29.3527C7.54974 29.3392 5.78062 29.1659 4.11328 27.5742C2.78565 26.1835 2.34347 24.6612 2.35865 22.7694C2.35758 22.6025 2.35652 22.4355 2.35542 22.2635C2.35275 21.7168 2.3545 21.1702 2.35657 20.6235C2.35616 20.2406 2.35557 19.8576 2.3548 19.4746C2.35391 18.674 2.35514 17.8735 2.35806 17.0729C2.36137 16.1515 2.3603 15.2302 2.35694 14.3088C2.35383 13.4171 2.35418 12.5253 2.35596 11.6336C2.35636 11.2565 2.35587 10.8795 2.35445 10.5024C2.35289 9.97425 2.35527 9.44622 2.35865 8.91805C2.35742 8.76431 2.35618 8.61057 2.35491 8.45218C2.37499 6.7462 2.93344 5.34919 4.11328 4.11327C5.72256 2.57701 7.4441 2.34616 9.58932 2.35864ZM5.75098 6.31274C4.86411 7.40106 4.85216 8.6072 4.85287 9.95578C4.85236 10.0964 4.85185 10.2369 4.85132 10.3818C4.84988 10.845 4.84958 11.3083 4.84941 11.7715C4.84892 12.0948 4.84841 12.4181 4.84787 12.7414C4.84696 13.4187 4.84668 14.096 4.84677 14.7734C4.84679 15.639 4.84471 16.5047 4.84208 17.3704C4.84038 18.0381 4.84008 18.7059 4.84016 19.3736C4.83998 19.6926 4.83931 20.0117 4.83813 20.3307C4.83663 20.778 4.83708 21.2253 4.83799 21.6726C4.83714 21.8029 4.83628 21.9333 4.8354 22.0677C4.84258 23.4565 5.01436 24.6722 6.039 25.6896C7.15553 26.6969 8.24125 26.8434 9.71846 26.7911C12.4484 26.7347 14.4947 26.7284 16.6017 28.6681C17.0273 29.0505 17.4828 29.3849 17.9437 29.7232C18.2514 29.9492 18.5541 30.1806 18.8567 30.4134C19.2232 30.6822 19.5426 30.9005 19.957 31.0781C19.8742 30.2012 19.8742 30.2012 19.719 29.3357C19.6515 28.9401 19.6264 28.5655 19.6143 28.1645C19.6103 28.0353 19.6064 27.9061 19.6024 27.773C19.6523 27.4219 19.6523 27.4219 19.8227 27.1752C20.2431 26.8667 20.5727 26.906 21.0905 26.9038C21.1894 26.9027 21.2883 26.9017 21.3902 26.9006C21.7174 26.8975 22.0446 26.8976 22.3719 26.8976C22.6002 26.8958 22.8286 26.8938 23.0569 26.8915C23.6589 26.886 24.261 26.8829 24.8631 26.8806C25.8234 26.8768 26.7837 26.8707 27.744 26.862C28.0779 26.8596 28.4118 26.859 28.7457 26.8585C31.075 26.8498 31.075 26.8498 33.0021 25.6485C34.0653 24.4699 34.1479 23.2642 34.1471 21.7317C34.1476 21.5911 34.1482 21.4505 34.1487 21.3057C34.1501 20.8425 34.1504 20.3792 34.1506 19.916C34.1511 19.5927 34.1516 19.2694 34.1521 18.946C34.153 18.2687 34.1533 17.5914 34.1532 16.9141C34.1532 16.0484 34.1553 15.1828 34.1579 14.3171C34.1596 13.6494 34.1599 12.9816 34.1598 12.3139C34.16 11.9948 34.1607 11.6758 34.1619 11.3568C34.1634 10.9095 34.1629 10.4622 34.162 10.0149C34.1629 9.88453 34.1637 9.75414 34.1646 9.6198C34.1574 8.23099 33.9856 7.01526 32.961 5.99793C31.9264 5.06459 30.9158 4.85684 29.5352 4.85462C29.3514 4.85397 29.1675 4.85332 28.9781 4.85265C28.7784 4.85272 28.5787 4.85279 28.3729 4.85286C28.1589 4.85241 27.9449 4.85189 27.7308 4.85131C27.151 4.84997 26.5712 4.84961 25.9914 4.84951C25.6287 4.8494 25.2659 4.84908 24.9032 4.84867C23.6362 4.84727 22.3693 4.84664 21.1024 4.84676C19.9238 4.84685 18.7452 4.84525 17.5665 4.84284C16.5527 4.84084 15.5388 4.84003 14.525 4.84013C13.9203 4.84017 13.3157 4.83974 12.711 4.83812C12.1419 4.83664 11.5729 4.83664 11.0038 4.83774C10.6972 4.83798 10.3905 4.83671 10.0839 4.83539C8.35275 4.84136 6.96961 4.96196 5.75098 6.31274Z" fill="white"/>
<path d="M27.4219 36.5625C27.8027 36.7815 27.8027 36.7815 28.0313 37.1719C28.1582 38.1822 27.9273 39.1112 27.6504 40.0759C27.6141 40.2078 27.5777 40.3396 27.5403 40.4755C27.4516 40.7966 27.3608 41.1171 27.2695 41.4375C27.4713 41.4269 27.4713 41.4269 27.6772 41.4161C29.4434 41.3629 30.7664 41.6601 32.1344 42.8127C33.4423 44.0613 34.1321 45.425 34.2039 47.2468C34.2078 47.653 34.2087 48.0582 34.2059 48.4643C34.2064 48.6834 34.2069 48.9024 34.2077 49.1214C34.2086 49.5777 34.2073 50.034 34.2045 50.4903C34.201 51.0707 34.203 51.6508 34.2066 52.2311C34.2088 52.6826 34.2081 53.134 34.2066 53.5855C34.2061 53.7992 34.2066 54.013 34.2081 54.2268C34.2185 56.2275 33.8557 57.7883 32.4492 59.2617C30.9043 60.7365 29.278 61.0292 27.1969 61.0163C26.9803 61.0172 26.7636 61.0182 26.547 61.0196C25.9634 61.0223 25.3799 61.0213 24.7963 61.0193C24.1826 61.0178 23.569 61.0192 22.9553 61.0202C21.9252 61.0213 20.8952 61.0198 19.8651 61.0169C18.6779 61.0136 17.4907 61.0147 16.3035 61.018C15.2802 61.0208 14.2569 61.0212 13.2336 61.0196C12.6241 61.0187 12.0147 61.0185 11.4053 61.0205C10.832 61.0223 10.2589 61.0211 9.68565 61.0176C9.37762 61.0164 9.06959 61.0182 8.76157 61.0201C6.91052 61.0031 5.46664 60.5537 4.11329 59.2617C2.61166 57.6887 2.34238 56.0253 2.35657 53.9106C2.35616 53.6916 2.35557 53.4726 2.35481 53.2536C2.35392 52.7972 2.35519 52.341 2.35806 51.8846C2.36153 51.3043 2.35953 50.7242 2.35589 50.1439C2.35367 49.6924 2.35439 49.241 2.35596 48.7895C2.35636 48.5757 2.35589 48.362 2.35445 48.1482C2.34396 46.1475 2.70678 44.5866 4.11329 43.1133C5.51425 41.7759 6.95602 41.362 8.87042 41.4038C8.97475 41.4074 9.07907 41.411 9.18656 41.4147C9.52193 41.4253 9.85698 41.4303 10.1925 41.4338C11.1452 41.4438 12.0975 41.4569 13.0498 41.4891C16.4431 41.5988 18.6911 41.2051 21.5323 39.2736C22.0467 38.9262 22.576 38.624 23.1176 38.321C23.4069 38.1511 23.6959 37.9807 23.9846 37.8098C24.2827 37.6341 24.5808 37.4585 24.879 37.2831C25.0029 37.2099 25.1267 37.1367 25.2542 37.0613C26.0083 36.6302 26.547 36.4244 27.4219 36.5625ZM23.6127 41.0298C23.5217 41.0821 23.4307 41.1344 23.3369 41.1883C23.0447 41.3565 22.7529 41.5255 22.4612 41.6946C22.1732 41.8607 21.885 42.0267 21.5969 42.1926C21.3324 42.345 21.0683 42.4978 20.8041 42.6507C20.6727 42.7239 20.6727 42.7239 20.5386 42.7986C20.2546 42.9598 20.2546 42.9598 19.9734 43.1649C18.8932 43.878 17.7862 43.8288 16.5388 43.8196C16.3118 43.8209 16.0848 43.8225 15.8578 43.8244C15.2632 43.8288 14.6688 43.8289 14.0742 43.8278C13.1229 43.8267 12.1717 43.8315 11.2204 43.8373C10.8905 43.8387 10.5607 43.8379 10.2309 43.8368C8.0993 43.8311 8.0993 43.8311 6.2461 44.789C4.9471 46.0974 4.85142 47.3916 4.84942 49.1719C4.84891 49.3297 4.8484 49.4874 4.84788 49.65C4.84711 49.983 4.84675 50.3161 4.84678 50.6491C4.84644 51.1556 4.84368 51.662 4.84079 52.1685C4.84034 52.4931 4.84004 52.8177 4.8399 53.1424C4.8388 53.2924 4.83771 53.4424 4.83658 53.5969C4.84086 54.9056 4.93179 56.0863 5.78907 57.1289C6.85545 58.1877 7.86867 58.5176 9.37225 58.5204C9.61727 58.5213 9.61727 58.5213 9.86725 58.5223C10.0441 58.5223 10.221 58.5222 10.4033 58.5221C10.5914 58.5226 10.7796 58.5231 10.9734 58.5237C11.4877 58.5249 12.0021 58.5254 12.5164 58.5255C12.8383 58.5256 13.1602 58.5259 13.4821 58.5263C14.6068 58.5277 15.7315 58.5283 16.8562 58.5282C17.9019 58.5281 18.9476 58.5297 19.9933 58.5321C20.8933 58.5341 21.7933 58.5349 22.6933 58.5348C23.2298 58.5348 23.7664 58.5352 24.3029 58.5369C24.902 58.5386 25.501 58.5379 26.1001 58.537C26.276 58.5378 26.452 58.5387 26.6333 58.5396C28.1374 58.5337 29.4528 58.4557 30.5646 57.336C31.6831 56.0961 31.7113 54.8101 31.7131 53.2031C31.7136 53.0453 31.7141 52.8875 31.7146 52.725C31.7154 52.3919 31.7158 52.0589 31.7157 51.7259C31.7161 51.2194 31.7188 50.7129 31.7217 50.2065C31.7222 49.8819 31.7225 49.5572 31.7226 49.2326C31.7243 49.0076 31.7243 49.0076 31.7259 48.778C31.7217 47.4694 31.6307 46.2887 30.7734 45.2461C29.3868 43.8693 27.9317 43.8469 26.063 43.8095C25.9311 43.8048 25.7992 43.8001 25.6634 43.7952C25.5439 43.7922 25.4245 43.7892 25.3015 43.7861C24.9093 43.7076 24.7709 43.5773 24.5273 43.2656C24.3568 42.3524 24.5984 41.4056 24.832 40.5234C24.3494 40.5234 24.027 40.7905 23.6127 41.0298Z" fill="white"/>
<path d="M16.6572 8.08549C16.9189 8.26623 16.9189 8.26623 17.291 8.15987C17.4167 8.08132 17.5424 8.00277 17.6719 7.92183C18.9137 7.213 19.9964 7.00781 21.4061 7.33448C22.6712 7.76941 23.5683 8.63114 24.1846 9.79757C24.5807 10.9663 24.6434 12.0786 24.2227 13.2539C23.901 13.8378 23.5424 14.3866 23.1562 14.9296C23.2422 14.8835 23.3281 14.8373 23.4166 14.7898C23.8109 14.5799 24.2071 14.3739 24.6035 14.1679C24.8062 14.0589 24.8062 14.0589 25.0129 13.9477C25.8577 13.5129 26.4691 13.2571 27.4219 13.4062C27.8282 13.7193 28.0085 13.9002 28.1086 14.4086C28.1091 14.557 28.1096 14.7054 28.1101 14.8582C28.112 15.027 28.1139 15.1958 28.1159 15.3697C28.1147 15.5513 28.1135 15.7328 28.1122 15.9199C28.1131 16.2005 28.1131 16.2005 28.1139 16.4867C28.1144 16.8821 28.1132 17.2776 28.1107 17.673C28.1074 18.2789 28.1107 18.8845 28.1146 19.4904C28.1142 19.8745 28.1134 20.2585 28.1122 20.6425C28.1134 20.8241 28.1147 21.0056 28.1159 21.1927C28.114 21.3615 28.1121 21.5303 28.1101 21.7042C28.1096 21.8525 28.1091 22.0009 28.1086 22.1538C28.0085 22.6622 27.8282 22.8431 27.4219 23.1562C26.3157 23.3293 25.5635 22.9108 24.6035 22.3945C24.4637 22.3218 24.3239 22.2492 24.1798 22.1743C23.8374 21.996 23.4964 21.8155 23.1562 21.6328C23.1688 21.771 23.1814 21.9093 23.1943 22.0517C23.1562 22.5468 23.1562 22.5468 22.9158 22.8775C22.4186 23.2531 22.1003 23.2335 21.4805 23.2351C21.3744 23.2361 21.2683 23.2372 21.159 23.2383C20.809 23.241 20.4593 23.2392 20.1094 23.2371C19.8658 23.2376 19.6222 23.2381 19.3786 23.2389C18.8684 23.2398 18.3582 23.2385 17.848 23.2357C17.1943 23.2322 16.5408 23.2342 15.887 23.2378C15.3841 23.24 14.8812 23.2393 14.3783 23.2378C14.1373 23.2373 13.8963 23.2378 13.6553 23.2393C13.3183 23.2408 12.9815 23.2385 12.6445 23.2351C12.4529 23.2346 12.2612 23.2341 12.0637 23.2336C11.5781 23.1562 11.5781 23.1562 11.2111 22.895C10.9229 22.481 10.8949 22.2727 10.9001 21.7722C10.9 21.6181 10.9 21.4639 10.8999 21.3051C10.9039 21.0564 10.9039 21.0564 10.9081 20.8026C10.9073 20.4498 10.9065 20.097 10.9057 19.7442C10.9079 19.1893 10.9116 18.6344 10.917 18.0795C10.9211 17.543 10.9196 17.0068 10.9176 16.4703C10.9209 16.306 10.9242 16.1418 10.9276 15.9725C10.9209 14.9513 10.7473 14.3457 10.115 13.5358C9.58511 12.8333 9.57175 11.8636 9.62206 11.0133C9.8253 9.72873 10.4419 8.76542 11.4532 7.95992C13.1025 6.82733 15.0661 6.97786 16.6572 8.08549ZM12.4922 10.664C12.2463 11.1559 12.2491 11.6558 12.3398 12.1875C12.6043 12.6483 12.9242 13.0128 13.4062 13.2539C14.1868 13.3464 14.1868 13.3464 14.9029 13.0944C15.4823 12.6174 15.6741 12.3602 15.7485 11.6162C15.7448 11.1057 15.6542 10.8394 15.3296 10.445C14.7918 9.92008 14.4836 9.84204 13.727 9.84755C13.1601 9.94432 12.8878 10.2588 12.4922 10.664ZM18.5859 10.664C18.34 11.1559 18.3428 11.6558 18.4336 12.1875C18.6981 12.6483 19.018 13.0128 19.5 13.2539C20.2806 13.3464 20.2806 13.3464 20.9967 13.0944C21.5761 12.6174 21.7679 12.3602 21.8423 11.6162C21.8386 11.1057 21.748 10.8394 21.4233 10.445C20.8856 9.92008 20.5773 9.84204 19.8208 9.84755C19.2538 9.94432 18.9816 10.2588 18.5859 10.664ZM13.4062 15.8437C13.4062 17.4525 13.4062 19.0612 13.4062 20.7187C15.8194 20.7187 18.2325 20.7187 20.7188 20.7187C20.7188 19.11 20.7188 17.5012 20.7188 15.8437C18.3056 15.8437 15.8925 15.8437 13.4062 15.8437ZM24.2036 17.291C24.0531 17.3673 24.0531 17.3673 23.8995 17.4451C23.6515 17.5709 23.4038 17.6975 23.1562 17.8242C23.1562 18.1258 23.1562 18.4275 23.1562 18.7382C23.505 18.9167 23.8542 19.0943 24.2036 19.2714C24.3028 19.3223 24.402 19.3732 24.5041 19.4256C25.0228 19.7084 25.0228 19.7084 25.5938 19.8046C25.5938 18.7992 25.5938 17.7937 25.5938 16.7578C25.0803 16.7578 24.6525 17.0607 24.2036 17.291Z" fill="white"/>
<path d="M62.1396 17.4802C63.4109 18.2383 64.2014 19.2876 64.5938 20.7187C64.7459 22.4097 64.647 23.8775 63.5654 25.2605C62.7035 26.1833 61.63 26.7502 60.3686 26.8637C58.734 26.9004 57.3868 26.7097 56.1434 25.5485C55.0171 24.2957 54.7551 22.9682 54.7962 21.3263C54.8684 20.0488 55.4188 18.9816 56.3672 18.1289C58.0032 16.8986 60.2621 16.5793 62.1396 17.4802ZM57.6812 20.6616C57.3454 21.359 57.3122 21.9383 57.4336 22.6992C57.7885 23.4363 58.2199 23.8677 58.957 24.2226C59.7179 24.3441 60.2973 24.3109 60.9946 23.9751C61.5407 23.4811 61.9423 23.0854 62.0622 22.3338C62.1012 21.4679 61.9942 20.9245 61.3945 20.2617C60.7318 19.662 60.1883 19.555 59.3224 19.594C58.5708 19.714 58.1752 20.1156 57.6812 20.6616Z" fill="white"/>
<path d="M7.3125 52.4062C14.5519 52.4062 21.7913 52.4062 29.25 52.4062C29.25 53.2106 29.25 54.015 29.25 54.8438C22.0106 54.8438 14.7712 54.8438 7.3125 54.8438C7.3125 54.0394 7.3125 53.235 7.3125 52.4062Z" fill="white"/>
<path d="M7.3125 47.5312C11.7366 47.5312 16.1606 47.5312 20.7188 47.5312C20.7188 48.3356 20.7188 49.14 20.7188 49.9688C16.2947 49.9688 11.8706 49.9688 7.3125 49.9688C7.3125 49.1644 7.3125 48.36 7.3125 47.5312Z" fill="white"/>
<path d="M23.1562 47.5312C25.1672 47.5312 27.1781 47.5312 29.25 47.5312C29.25 48.3356 29.25 49.14 29.25 49.9688C27.2391 49.9688 25.2281 49.9688 23.1562 49.9688C23.1562 49.1644 23.1562 48.36 23.1562 47.5312Z" fill="white"/>
<path d="M37.7812 68.25C38.5856 68.25 39.39 68.25 40.2188 68.25C40.2188 69.0544 40.2188 69.8587 40.2188 70.6875C39.4144 70.6875 38.61 70.6875 37.7812 70.6875C37.7812 69.8831 37.7812 69.0788 37.7812 68.25Z" fill="white"/>
</svg>
