<svg width="77" height="77" viewBox="0 0 77 77" fill="none" xmlns="http://www.w3.org/2000/svg">
<path d="M4.18875 2.33049C4.36929 2.32918 4.36929 2.32918 4.55348 2.32784C4.95935 2.32564 5.36508 2.32774 5.77095 2.32981C6.06384 2.32911 6.35673 2.32816 6.64961 2.32696C7.45644 2.32444 8.26323 2.3257 9.07005 2.32756C9.9394 2.32891 10.8087 2.32682 11.6781 2.32516C13.3819 2.32248 15.0857 2.32307 16.7896 2.32481C18.1739 2.32616 19.5582 2.32635 20.9425 2.3257C21.2376 2.32556 21.2376 2.32556 21.5387 2.32542C21.9383 2.32522 22.338 2.32503 22.7376 2.32483C26.3813 2.3231 30.025 2.3249 33.6687 2.32805C36.9965 2.3309 40.3243 2.33064 43.6521 2.32777C47.389 2.32455 51.126 2.32328 54.8629 2.32513C55.2611 2.32532 55.6594 2.32551 56.0576 2.3257C56.3515 2.32584 56.3515 2.32584 56.6513 2.32598C58.0346 2.3265 59.4178 2.32562 60.801 2.3242C62.4858 2.32252 64.1706 2.32297 65.8555 2.32618C66.7157 2.32776 67.5759 2.32837 68.4361 2.32639C69.2228 2.3246 70.0094 2.32557 70.796 2.32878C71.0814 2.32946 71.3668 2.32911 71.6522 2.32765C72.0386 2.32584 72.4249 2.32769 72.8113 2.33049C72.9795 2.32838 72.9795 2.32838 73.1511 2.32623C73.6524 2.33356 73.9464 2.37432 74.3621 2.66373C74.6369 3.07187 74.6691 3.28618 74.6695 3.77531C74.671 3.93121 74.6726 4.0871 74.6742 4.24772C74.6729 4.41876 74.6715 4.58981 74.6702 4.76603C74.6716 5.03884 74.6716 5.03884 74.673 5.31716C74.675 5.82224 74.6743 6.32718 74.6724 6.83224C74.671 7.37682 74.6731 7.92138 74.6748 8.46595C74.6775 9.53286 74.6769 10.5997 74.6751 11.6666C74.6738 12.5336 74.6736 13.4005 74.6743 14.2674C74.6744 14.3907 74.6744 14.514 74.6745 14.6411C74.6747 14.8915 74.6749 15.142 74.6751 15.3924C74.6768 17.742 74.6749 20.0916 74.6716 22.4411C74.669 24.4581 74.6694 26.475 74.6722 28.4919C74.6754 30.833 74.6767 33.174 74.6748 35.5151C74.6746 35.7646 74.6744 36.0142 74.6743 36.2637C74.6741 36.4479 74.6741 36.4479 74.674 36.6358C74.6735 37.5019 74.6743 38.368 74.6758 39.2341C74.6774 40.2893 74.677 41.3444 74.6738 42.3996C74.6722 42.9382 74.6716 43.4768 74.6736 44.0154C74.6757 44.5986 74.6732 45.1818 74.6702 45.7651C74.6722 46.0217 74.6722 46.0217 74.6742 46.2834C74.6726 46.4393 74.6711 46.5952 74.6695 46.7558C74.6694 46.8905 74.6693 47.0252 74.6692 47.1639C74.5681 47.6457 74.3769 47.8265 73.9922 48.1249C73.5806 48.1687 73.2343 48.1826 72.8267 48.1625C72.7218 48.1598 72.6169 48.1571 72.5089 48.1543C72.2513 48.1473 71.9938 48.1365 71.7363 48.1249C71.8094 48.2906 71.8825 48.4564 71.9578 48.6271C72.2435 49.3931 72.2552 50.1085 72.2527 50.9189C72.2535 51.0703 72.2543 51.2217 72.2551 51.3777C72.2561 51.6977 72.2559 52.0178 72.2546 52.3378C72.2533 52.817 72.2576 53.296 72.2624 53.7752C72.2805 59.0835 70.5171 63.923 67.0742 67.9765C66.9959 68.0508 66.9176 68.125 66.8369 68.2015C66.3093 68.7124 66.2746 69.1382 66.2377 69.8376C66.2375 69.9969 66.2373 70.1563 66.2371 70.3205C66.176 70.8014 66.0857 71.0479 65.867 71.4676C65.8118 71.5746 65.7565 71.6816 65.6996 71.7919C65.657 71.8728 65.6143 71.9537 65.5703 72.0371C65.6745 72.0376 65.7787 72.0381 65.886 72.0387C66.9692 72.045 68.0523 72.0554 69.1355 72.0683C69.5399 72.0728 69.9442 72.076 70.3486 72.0778C70.9295 72.081 71.5103 72.088 72.0912 72.0958C72.3628 72.0961 72.3628 72.0961 72.64 72.0964C72.8086 72.0993 72.9771 72.1023 73.1508 72.1053C73.2991 72.1067 73.4474 72.108 73.6001 72.1094C74.0988 72.2087 74.279 72.3981 74.5938 72.789C74.6737 73.0898 74.6737 73.0898 74.669 73.3906C74.6705 73.4898 74.6721 73.5891 74.6737 73.6914C74.5536 74.1434 74.3613 74.3074 73.9922 74.5937C73.5784 74.6527 73.2249 74.6746 72.8113 74.6694C72.6307 74.6707 72.6307 74.6707 72.4465 74.6721C72.0407 74.6743 71.6349 74.6721 71.2291 74.6701C70.9362 74.6708 70.6433 74.6717 70.3504 74.6729C69.5436 74.6754 68.7368 74.6742 67.93 74.6723C67.0606 74.671 66.1913 74.6731 65.3219 74.6747C63.6181 74.6774 61.9143 74.6768 60.2105 74.6751C58.8262 74.6737 57.4419 74.6735 56.0576 74.6742C55.8608 74.6743 55.6641 74.6744 55.4613 74.6745C55.0617 74.6747 54.662 74.6749 54.2624 74.6751C50.6187 74.6768 46.975 74.675 43.3313 74.6718C40.0035 74.669 36.6757 74.6692 33.348 74.6721C29.611 74.6753 25.8741 74.6766 22.1371 74.6748C21.7389 74.6746 21.3407 74.6744 20.9425 74.6742C20.6485 74.6741 20.6485 74.674 20.3487 74.6739C18.9655 74.6734 17.5823 74.6743 16.1991 74.6757C14.5142 74.6774 12.8294 74.6769 11.1445 74.6737C10.2843 74.6721 9.4241 74.6715 8.56388 74.6735C7.77723 74.6753 6.99063 74.6743 6.20399 74.6711C5.9186 74.6704 5.63321 74.6708 5.34782 74.6722C4.9614 74.674 4.57516 74.6722 4.18875 74.6694C4.02055 74.6715 4.02055 74.6715 3.84896 74.6737C3.32771 74.666 3.05572 74.6309 2.63822 74.307C2.38665 73.9655 2.32452 73.8094 2.33106 73.3906C2.32951 73.2913 2.32796 73.1921 2.32636 73.0898C2.44249 72.6526 2.66321 72.4741 3.00782 72.1874C3.37134 72.1151 3.37134 72.1151 3.78019 72.1191C4.01045 72.1192 4.01045 72.1192 4.24537 72.1193C4.41004 72.1224 4.5747 72.1255 4.74436 72.1287C4.91375 72.1295 5.08314 72.1304 5.25767 72.1313C5.79863 72.1346 6.33945 72.1422 6.88038 72.1498C7.24715 72.1529 7.61392 72.1556 7.9807 72.1581C8.87976 72.1647 9.77874 72.1748 10.6777 72.1874C10.6594 72.0371 10.6411 71.8867 10.6222 71.7318C10.3809 69.6913 10.2302 67.6465 10.0844 65.5973C10.0579 65.2302 10.0314 64.8632 10.0048 64.4962C9.93558 63.5394 9.86701 62.5826 9.79858 61.6258C9.72838 60.6458 9.65757 59.6658 9.58682 58.6858C9.44858 56.7697 9.31097 54.8536 9.17383 52.9374C9.06309 52.9406 8.95235 52.9437 8.83825 52.947C8.33603 52.9595 7.83386 52.9673 7.33155 52.975C7.15727 52.9801 6.98298 52.9851 6.80342 52.9903C6.63573 52.9923 6.46804 52.9942 6.29526 52.9962C6.1409 52.9993 5.98654 53.0025 5.8275 53.0057C5.3077 52.9199 5.13545 52.7428 4.81251 52.3359C4.73261 52.0351 4.73261 52.0351 4.73731 51.7343C4.73576 51.6351 4.73421 51.5358 4.73261 51.4335C4.84946 50.9936 5.06472 50.8173 5.41407 50.5312C5.81369 50.4629 5.81369 50.4629 6.26237 50.4724C6.50373 50.4754 6.50373 50.4754 6.74996 50.4783C7.00063 50.4859 7.00063 50.4859 7.25635 50.4936C7.42579 50.4963 7.59523 50.499 7.7698 50.5018C8.18773 50.5089 8.6056 50.5197 9.02344 50.5312C8.97381 49.7371 8.92419 48.9431 8.87305 48.1249C8.69853 48.1281 8.524 48.1312 8.34419 48.1345C7.69621 48.1454 7.04824 48.1523 6.4002 48.158C6.11982 48.161 5.83945 48.1651 5.5591 48.1703C5.1559 48.1776 4.75283 48.181 4.34958 48.1837C4.22439 48.1868 4.0992 48.1899 3.97022 48.1931C3.79415 48.1932 3.79415 48.1932 3.61452 48.1932C3.51166 48.1946 3.4088 48.1959 3.30283 48.1973C2.86625 48.0902 2.69096 47.8648 2.40626 47.5234C2.33085 47.1639 2.33085 47.1639 2.33055 46.7558C2.32899 46.5999 2.32742 46.444 2.3258 46.2834C2.32714 46.1124 2.32848 45.9413 2.32987 45.7651C2.32893 45.5832 2.32799 45.4014 2.32702 45.214C2.32504 44.7089 2.32575 44.204 2.32762 43.6989C2.32898 43.1543 2.32688 42.6098 2.32522 42.0652C2.32254 40.9983 2.32313 39.9314 2.32487 38.8645C2.32623 37.9976 2.32641 37.1306 2.32576 36.2637C2.32566 36.1404 2.32557 36.0171 2.32548 35.8901C2.32529 35.6396 2.32509 35.3892 2.32489 35.1387C2.32318 32.7892 2.32515 30.4396 2.32838 28.09C2.33107 26.0731 2.3306 24.0562 2.32783 22.0392C2.32461 19.6982 2.32334 17.3571 2.32519 15.0161C2.32538 14.7665 2.32557 14.517 2.32576 14.2674C2.32585 14.1447 2.32594 14.0219 2.32604 13.8954C2.32656 13.0293 2.32568 12.1632 2.32427 11.2971C2.32258 10.2419 2.32303 9.18672 2.32624 8.13152C2.32782 7.59293 2.32844 7.05438 2.32645 6.51579C2.32433 5.93251 2.32686 5.34931 2.32987 4.76603C2.32852 4.59499 2.32718 4.42394 2.3258 4.24772C2.32737 4.09182 2.32894 3.93593 2.33055 3.77531C2.33065 3.64064 2.33075 3.50597 2.33085 3.36721C2.54291 2.35632 3.29772 2.3193 4.18875 2.33049ZM4.81251 4.81244C4.81251 18.3115 4.81251 31.8106 4.81251 45.7187C6.10286 45.7187 7.39321 45.7187 8.72266 45.7187C8.67303 44.9246 8.6234 44.1306 8.57227 43.3124C8.22487 43.2132 7.87747 43.1139 7.51954 43.0117C6.96909 41.9108 7.56098 40.4088 7.85839 39.2882C7.94301 38.968 8.02412 38.6472 8.10494 38.3261C8.1581 38.1212 8.21145 37.9163 8.26503 37.7116C8.31307 37.5272 8.36111 37.3429 8.41061 37.153C8.57381 36.6909 8.63679 36.5261 9.02344 36.2441C9.45452 36.1841 9.45452 36.1841 9.98582 36.1791C10.1311 36.1768 10.1311 36.1768 10.2794 36.1744C10.5992 36.1699 10.9189 36.1685 11.2388 36.1671C11.4607 36.1646 11.6826 36.1619 11.9044 36.1589C12.4882 36.1518 13.0719 36.1473 13.6556 36.1434C14.2514 36.1389 14.8472 36.1319 15.4429 36.1251C16.6117 36.1122 17.7804 36.1021 18.9492 36.0937C18.8406 34.3365 18.8406 34.3365 18.6578 32.586C18.6451 32.4837 18.6323 32.3816 18.6191 32.2763C18.5926 32.0657 18.5658 31.8551 18.5387 31.6446C18.4974 31.3227 18.4571 31.0008 18.417 30.6788C18.3128 29.8513 18.3128 29.8513 18.1973 29.0253C18.1901 28.916 18.1829 28.8066 18.1755 28.6939C17.9558 28.2326 17.4935 28.088 17.0505 27.8821C16.9012 27.8094 16.9012 27.8094 16.7488 27.7351C16.4305 27.5804 16.1109 27.4286 15.791 27.277C15.4714 27.124 15.1521 26.9704 14.8332 26.8157C14.6347 26.7196 14.4357 26.6245 14.2362 26.5305C13.5519 26.2014 13.5519 26.2014 13.3848 25.8671C13.317 24.7996 13.317 24.7996 13.5352 24.3632C14.0977 24.082 14.7516 24.123 15.3419 24.3075C15.6562 24.4424 15.96 24.5899 16.2645 24.7457C16.3756 24.8006 16.4867 24.8556 16.6011 24.9122C16.834 25.0282 17.0663 25.1455 17.2979 25.2638C17.6526 25.4444 18.0096 25.6197 18.367 25.7946C18.5938 25.9083 18.8203 26.0224 19.0467 26.1368C19.1533 26.1888 19.2598 26.2409 19.3695 26.2945C20.1056 26.6767 20.1056 26.6767 20.325 27.1119C20.4584 27.5383 20.5287 27.934 20.5815 28.3775C20.6124 28.6296 20.6124 28.6296 20.6439 28.8868C20.6754 29.1566 20.6754 29.1566 20.7075 29.4319C20.7414 29.7101 20.7414 29.7101 20.7759 29.994C20.8357 30.4854 20.8946 30.9768 20.953 31.4684C21.0357 32.1631 21.1191 32.8578 21.2035 33.5524C21.2483 33.922 21.2925 34.2917 21.336 34.6615C21.3561 34.8277 21.3762 34.9939 21.3969 35.1651C21.4144 35.3121 21.4319 35.4591 21.4498 35.6105C21.472 35.9385 21.472 35.9385 21.6563 36.0937C21.9722 36.11 22.2886 36.1157 22.6049 36.1174C22.704 36.1182 22.803 36.1189 22.9051 36.1197C23.1208 36.1213 23.3365 36.1226 23.5523 36.1237C23.8936 36.1254 24.2348 36.1283 24.5761 36.1316C25.5467 36.1409 26.5172 36.149 27.4878 36.1541C28.0809 36.1572 28.6739 36.1625 29.2669 36.1692C29.4932 36.1713 29.7195 36.1727 29.9458 36.1731C30.2623 36.1739 30.5787 36.1773 30.8952 36.1814C31.0754 36.1827 31.2557 36.1839 31.4413 36.1851C31.8828 36.2441 31.8828 36.2441 32.16 36.445C32.4333 36.8381 32.521 37.2501 32.6412 37.7116C32.6803 37.861 32.6803 37.861 32.7202 38.0135C32.7749 38.2244 32.8289 38.4355 32.8821 38.6468C32.9628 38.9663 33.047 39.2847 33.1315 39.6032C33.6606 41.6394 33.6606 41.6394 33.5371 42.7109C33.172 43.2127 33.0019 43.1789 32.334 43.3124C32.2844 44.1065 32.2347 44.9006 32.1836 45.7187C33.1039 45.7523 34.0239 45.7768 34.9447 45.793C35.2575 45.7998 35.5702 45.809 35.8829 45.8208C37.6439 45.9573 37.6439 45.9573 39.2593 45.4243C39.5804 45.0741 39.5804 45.0741 39.8 44.6941C40.1345 44.1545 40.6293 43.9766 41.207 43.7636C41.3683 43.7016 41.5296 43.6395 41.6958 43.5756C42.9603 43.3227 43.9799 43.3528 45.1331 43.9387C45.4292 44.0934 45.4292 44.0934 45.8316 44.055C45.9991 43.9852 45.9991 43.9852 46.1699 43.914C46.3033 43.8706 46.4367 43.8272 46.5741 43.7824C47.0717 43.3251 47.0522 42.8695 47.1457 42.218C47.3259 41.2591 47.9773 40.7047 48.7266 40.1542C48.8568 40.1139 48.9871 40.0736 49.1213 40.032C49.5446 39.8204 49.5732 39.7094 49.7605 39.2895C50.1244 38.4793 50.6864 37.9697 51.4783 37.5765C52.4571 37.2653 53.721 37.2558 54.667 37.6822C55.3713 38.1084 55.9704 38.7167 56.2273 39.5057C56.4307 39.9238 56.5469 39.9505 56.9605 40.1354C57.7855 40.5059 58.2748 41.0859 58.6994 41.8743C58.8027 42.2597 58.8027 42.2597 58.8157 42.5523C58.8357 43.1791 58.8357 43.1791 59.1699 43.6843C59.4759 43.8929 59.4759 43.8929 60.0059 44.0644C60.409 43.9884 60.409 43.9884 60.7578 43.7636C61.8639 43.2255 63.2629 43.2981 64.4377 43.5944C65.6091 44.0441 66.3829 44.6817 67.0742 45.7187C68.7616 45.7187 70.449 45.7187 72.1875 45.7187C72.1875 32.2196 72.1875 18.7206 72.1875 4.81244C49.9538 4.81244 27.72 4.81244 4.81251 4.81244ZM10.6777 38.4999C10.2041 39.7862 10.2041 39.7862 10.0762 40.9062C16.925 40.9062 23.7738 40.9062 30.8301 40.9062C30.6092 39.3793 30.6092 39.3793 30.2285 38.4999C23.7768 38.4999 17.325 38.4999 10.6777 38.4999ZM52.1574 40.0696C51.8818 40.4592 51.8282 40.6777 51.725 41.1318C51.6216 41.4901 51.6216 41.4901 51.4336 41.8085C51.0132 42.0329 50.615 42.161 50.1547 42.282C49.7304 42.3843 49.7304 42.3843 49.4785 42.8613C49.4126 43.3773 49.406 43.6532 49.6947 44.0926C50.1507 44.4151 50.5836 44.539 51.1146 44.6977C51.527 44.8511 51.7562 45.0831 52.0352 45.4179C52.5134 45.657 53.0175 45.6088 53.5391 45.5683C53.9477 45.4321 54.1111 45.3014 54.3944 44.9761C54.8293 44.5883 55.2353 44.4851 55.7914 44.3364C56.1493 44.2267 56.1493 44.2267 56.3965 43.7636C56.4624 43.2475 56.469 42.9717 56.1803 42.5323C55.7907 42.2567 55.5723 42.2032 55.1182 42.0999C54.7598 41.9965 54.7598 41.9965 54.4414 41.8085C54.2171 41.3881 54.089 40.9899 53.9679 40.5296C53.8657 40.1054 53.8657 40.1054 53.3887 39.8535C52.8726 39.7876 52.5967 39.7809 52.1574 40.0696ZM11.1289 43.3124C11.1289 44.2256 11.1354 45.0922 11.2021 45.996C11.21 46.1047 11.2179 46.2135 11.226 46.3255C11.2521 46.6845 11.2791 47.0435 11.306 47.4025C11.3251 47.662 11.3441 47.9216 11.363 48.1811C11.4144 48.8821 11.4665 49.583 11.5187 50.2839C11.5734 51.0189 11.6275 51.7539 11.6817 52.4889C11.7727 53.7223 11.8642 54.9556 11.956 56.1889C12.0619 57.614 12.1673 59.0391 12.2722 60.4642C12.3733 61.8372 12.4749 63.2102 12.5767 64.5831C12.6199 65.1666 12.663 65.7502 12.706 66.3338C12.7566 67.0206 12.8076 67.7074 12.859 68.3942C12.8777 68.6461 12.8963 68.8979 12.9148 69.1497C12.94 69.4938 12.9658 69.8378 12.9917 70.1819C13.006 70.3743 13.0202 70.5667 13.035 70.7649C13.0799 71.2416 13.1557 71.7151 13.2344 72.1874C17.9988 72.1874 22.7631 72.1874 27.6719 72.1874C27.8573 70.3328 28.0358 68.4835 28.1725 66.6256C28.1903 66.3875 28.2081 66.1495 28.2259 65.9115C28.2735 65.2758 28.3206 64.6402 28.3676 64.0045C28.4071 63.4708 28.4468 62.937 28.4865 62.4033C28.5801 61.1443 28.6734 59.8853 28.7664 58.6262C28.862 57.3317 28.9583 56.0373 29.055 54.7429C29.1384 53.6253 29.2214 52.5077 29.3041 51.39C29.3532 50.7251 29.4026 50.0603 29.4523 49.3954C29.499 48.7715 29.5451 48.1477 29.5908 47.5237C29.6076 47.2959 29.6246 47.0681 29.6418 46.8403C29.6653 46.5275 29.6882 46.2147 29.7109 45.9019C29.7238 45.7275 29.7367 45.5531 29.75 45.3735C29.7837 44.6872 29.7774 43.9995 29.7774 43.3124C23.6234 43.3124 17.4694 43.3124 11.1289 43.3124ZM41.1248 46.8067C40.9954 47.0457 40.8723 47.2883 40.757 47.5345C40.6055 47.8242 40.6055 47.8242 40.3047 47.9746C39.7773 48.0307 39.2503 48.0825 38.7215 48.1229C37.9479 48.1992 37.4655 48.3736 36.8457 48.8769C35.83 50.1672 36.0938 51.2118 36.0938 52.9374C47.2106 52.9374 58.3275 52.9374 69.7813 52.9374C69.9212 50.8145 69.9212 50.8145 69.1362 48.9403C68.2374 48.104 67.1326 48.0866 65.9721 48.0409C65.5134 47.9651 65.3935 47.8895 65.1192 47.5234C64.999 47.3254 64.8832 47.1247 64.7714 46.9218C64.413 46.3433 64.134 46.075 63.4649 45.8691C62.734 45.7652 62.2572 45.7881 61.6038 46.1511C61.4735 46.2565 61.3432 46.362 61.209 46.4706C60.7395 46.7836 60.4559 46.8502 59.8966 46.8419C59.2363 46.7058 58.7247 46.2763 58.2012 45.8691C58.1141 45.9127 58.0271 45.9563 57.9374 46.0013C57.7266 46.1065 57.5156 46.2111 57.3041 46.315C56.7348 46.5957 56.1856 46.8897 55.6445 47.2226C54.3778 47.9884 53.367 48.0926 51.8848 47.9746C51.2538 47.8105 50.6231 47.6236 50.1612 47.1456C49.8635 46.8578 49.5752 46.7611 49.1871 46.621C48.6609 46.4305 48.2587 46.2239 47.8242 45.8691C47.7153 45.9451 47.6063 46.0211 47.4941 46.0994C47.3487 46.1971 47.2033 46.2948 47.0535 46.3955C46.8389 46.542 46.8389 46.542 46.6199 46.6915C46.1049 46.9551 45.8379 47.0058 45.2676 46.9218C44.8546 46.6915 44.8546 46.6915 44.4498 46.3955C43.9484 46.0614 43.6567 45.8772 43.0587 45.7657C42.2621 45.931 41.6055 46.1124 41.1248 46.8067ZM32.0332 48.1249C31.8948 48.9381 31.8701 49.706 31.8828 50.5312C32.4784 50.5312 33.0739 50.5312 33.6875 50.5312C33.734 50.2737 33.7806 50.0163 33.8285 49.751C33.9267 49.2076 34.0304 48.6665 34.1387 48.1249C33.4439 48.1249 32.7491 48.1249 32.0332 48.1249ZM31.7324 52.9374C31.5531 53.2961 31.5422 53.5598 31.5126 53.9602C31.501 54.1126 31.4894 54.2651 31.4774 54.4221C31.4653 54.59 31.4532 54.7579 31.4407 54.9309C31.4275 55.1072 31.4143 55.2835 31.4006 55.4652C31.3645 55.9496 31.3288 56.4341 31.2935 56.9185C31.2564 57.4254 31.2186 57.9322 31.1809 58.4391C31.1176 59.2908 31.0549 60.1425 30.9924 60.9943C30.9203 61.9785 30.8475 62.9626 30.7743 63.9467C30.6964 64.9944 30.6189 66.0422 30.5416 67.09C30.5193 67.3917 30.497 67.6934 30.4746 67.9951C30.4329 68.5582 30.3916 69.1213 30.3504 69.6844C30.338 69.8514 30.3255 70.0184 30.3127 70.1905C30.3016 70.3442 30.2904 70.4979 30.2789 70.6562C30.2691 70.7894 30.2593 70.9225 30.2492 71.0596C30.2285 71.4351 30.2285 71.8114 30.2285 72.1874C34.6951 72.1874 39.1617 72.1874 43.7637 72.1874C43.2883 71.8071 42.8125 71.4337 42.3269 71.0672C37.9102 67.719 34.7135 62.7932 33.9113 57.2447C33.7411 55.8177 33.7225 54.3728 33.6875 52.9374C33.0423 52.9374 32.3972 52.9374 31.7324 52.9374ZM36.2441 55.3437C36.3662 57.0455 36.3662 57.0455 36.7047 58.6805C36.7372 58.8004 36.7698 58.9204 36.8033 59.0439C38.1591 63.7965 41.365 67.836 45.6533 70.2757C48.4676 71.8155 51.5531 72.4167 54.7422 72.0371C54.6678 71.882 54.5933 71.7269 54.5166 71.5671C54.1158 70.4893 54.0515 69.1154 54.526 68.0517C54.9522 67.3474 55.5605 66.7483 56.3495 66.4914C56.7676 66.288 56.7943 66.1718 56.9793 65.7582C57.3431 64.948 57.9052 64.4384 58.697 64.0452C59.6758 63.734 60.9397 63.7246 61.8858 64.1509C62.6074 64.5877 63.1758 65.2031 63.4743 65.9932C63.5907 66.3555 63.5907 66.3555 63.9724 66.529C64.4042 66.6318 64.5608 66.6312 64.9688 66.4726C67.5099 63.9742 69.3146 59.7956 69.6309 56.246C69.6309 55.9483 69.6309 55.6505 69.6309 55.3437C58.6133 55.3437 47.5956 55.3437 36.2441 55.3437ZM59.3761 66.5384C59.1006 66.928 59.047 67.1464 58.9437 67.6005C58.8403 67.9589 58.8403 67.9589 58.6524 68.2773C58.2319 68.5016 57.8337 68.6298 57.3734 68.7508C56.9492 68.853 56.9492 68.853 56.6973 69.33C56.6314 69.8461 56.6247 70.122 56.9135 70.5613C57.3695 70.8839 57.8024 71.0077 58.3334 71.1664C58.7458 71.3198 58.9749 71.5519 59.2539 71.8867C59.7321 72.1258 60.2363 72.0776 60.7578 72.0371C61.1664 71.9009 61.3299 71.7701 61.6132 71.4449C62.048 71.057 62.4541 70.9539 63.0102 70.8051C63.3681 70.6954 63.3681 70.6954 63.6152 70.2324C63.6811 69.7163 63.6878 69.4404 63.3991 69.001C63.0095 68.7255 62.791 68.6719 62.3369 68.5687C61.9786 68.4653 61.9786 68.4653 61.6602 68.2773C61.4358 67.8568 61.3077 67.4587 61.1867 66.9984C61.0844 66.5741 61.0844 66.5741 60.6074 66.3222C60.0914 66.2563 59.8155 66.2497 59.3761 66.5384Z" fill="white"/>
<path d="M45.8974 13.1967C46.0897 13.3581 46.2809 13.5211 46.4707 13.6855C46.5899 13.7752 46.7092 13.865 46.832 13.9575C48.2938 15.1907 49.2598 16.8828 49.9297 18.6484C49.9948 18.8155 50.06 18.9826 50.1271 19.1548C51.1093 22.1627 50.7183 25.5262 49.3563 28.3298C48.7211 29.5713 47.9459 30.6294 46.9219 31.582C46.7727 31.7323 46.7727 31.7323 46.6205 31.8857C44.0813 34.3413 40.9569 34.9728 37.5295 34.9311C34.9817 34.8576 32.4151 33.7572 30.5293 32.0331C30.3952 31.9127 30.261 31.7924 30.1228 31.6683C27.9873 29.6525 26.5254 26.8303 26.4036 23.8621C26.4 23.5373 26.3999 23.2124 26.403 22.8875C26.4043 22.7161 26.4057 22.5446 26.4071 22.368C26.4645 19.5668 27.4805 17.0039 29.3262 14.8886C29.5004 14.6702 29.5004 14.6702 29.6781 14.4474C30.8833 13.0036 32.5611 12.0946 34.2891 11.4296C34.4564 11.3643 34.6237 11.2989 34.7961 11.2316C38.5129 10.0208 42.8198 10.8235 45.8974 13.1967ZM32.0332 15.7909C30.186 17.5783 29.0407 19.735 28.9737 22.3254C28.9408 25.3198 29.7496 27.5145 31.8253 29.7344C33.8241 31.6513 36.1713 32.4172 38.889 32.4076C41.6214 32.3321 43.8335 31.1416 45.7188 29.1757C47.6717 26.7926 48.261 24.2343 47.9746 21.205C47.5513 18.6219 45.9677 16.4472 43.8859 14.9168C40.1525 12.3902 35.3502 12.8409 32.0332 15.7909Z" fill="white"/>
<path d="M23.8246 48.9533C25.1485 49.9069 26.1434 51.168 26.4688 52.7871C26.67 54.6545 26.5102 56.3046 25.3878 57.8628C24.3633 59.0787 23.1143 60.0153 21.4952 60.1898C19.5535 60.3245 17.934 60.089 16.4026 58.7986C15.1215 57.5757 14.4371 56.275 14.3667 54.4963C14.3434 52.6142 14.7671 51.167 16.0918 49.7793C18.1642 47.8009 21.3713 47.4235 23.8246 48.9533ZM18.4981 51.1328C19.0524 51.7234 19.6292 52.1726 20.3051 52.6162C20.4038 52.6819 20.5025 52.7476 20.6042 52.8152C20.8113 52.9528 21.0185 53.0899 21.2261 53.2266C21.5452 53.4368 21.8634 53.6483 22.1814 53.8601C22.3831 53.9938 22.5848 54.1275 22.7865 54.2611C22.8821 54.3245 22.9776 54.3879 23.0761 54.4533C23.4639 54.7584 23.4639 54.7584 23.9121 54.8926C23.9839 53.8083 23.9852 52.926 23.3106 52.0352C22.6173 51.3029 21.956 50.7446 20.9243 50.6364C19.9947 50.6328 19.3188 50.6851 18.4981 51.1328ZM16.9941 53.3887C16.9224 54.4729 16.921 55.3553 17.5957 56.2461C18.2889 56.9784 18.9503 57.5366 19.982 57.6448C20.9116 57.6485 21.5874 57.5961 22.4082 57.1484C21.8538 56.5579 21.277 56.1087 20.6012 55.6651C20.5025 55.5994 20.4037 55.5337 20.302 55.466C20.095 55.3285 19.8877 55.1914 19.6802 55.0547C19.3611 54.8444 19.0429 54.6329 18.7248 54.4211C18.5232 54.2874 18.3215 54.1538 18.1197 54.0202C18.0242 53.9568 17.9286 53.8933 17.8302 53.828C17.4424 53.5229 17.4424 53.5229 16.9941 53.3887Z" fill="white"/>
<path d="M65.4857 29.1007C66.2308 29.5519 66.9626 30.2352 67.1782 31.0939C67.2012 31.2611 67.2012 31.2611 67.2246 31.4317C67.3361 31.447 67.4475 31.4624 67.5624 31.4781C68.4211 31.6937 69.1044 32.4256 69.5556 33.1706C69.9748 34.1306 69.9444 35.3082 69.6872 36.3094C69.1706 37.4927 68.1206 38.1914 66.9596 38.6546C66.5036 38.8528 66.1051 39.1166 65.6943 39.3948C64.7305 39.9499 63.2936 39.8542 62.2564 39.5845C61.3298 39.227 61.3298 39.227 60.9875 38.8719C60.6957 38.5906 60.427 38.5135 60.0434 38.3873C59.0301 37.9982 58.4363 37.4273 57.9192 36.4792C57.5689 35.3701 57.5232 34.4875 57.9004 33.3868C58.2997 32.6325 58.8515 32.0609 59.5547 31.5821C59.9964 31.4505 59.9964 31.4505 60.3066 31.4317C60.3219 31.3202 60.3373 31.2088 60.353 31.0939C60.5686 30.2352 61.3005 29.5519 62.0455 29.1007C63.0701 28.6533 64.4611 28.6533 65.4857 29.1007ZM62.9855 31.6479C62.7099 32.0375 62.6563 32.2559 62.5531 32.71C62.4497 33.0684 62.4497 33.0684 62.2617 33.3868C61.8413 33.6111 61.4431 33.7393 60.9828 33.8603C60.5585 33.9625 60.5585 33.9625 60.3066 34.4395C60.2407 34.9556 60.2341 35.2315 60.5228 35.6709C60.9788 35.9934 61.4117 36.1173 61.9427 36.2759C62.3551 36.4294 62.5843 36.6614 62.8633 36.9962C63.3415 37.2353 63.8456 37.1871 64.3672 37.1466C64.7758 37.0104 64.9392 36.8797 65.2225 36.5544C65.6574 36.1666 66.0634 36.0634 66.6195 35.9147C66.9774 35.805 66.9774 35.805 67.2246 35.3419C67.2905 34.8258 67.2971 34.5499 67.0084 34.1106C66.6188 33.835 66.4004 33.7814 65.9463 33.6782C65.5879 33.5748 65.5879 33.5748 65.2695 33.3868C65.0452 32.9664 64.917 32.5682 64.796 32.1079C64.6938 31.6836 64.6938 31.6836 64.2168 31.4317C63.7007 31.3658 63.4248 31.3592 62.9855 31.6479Z" fill="white"/>
<path d="M36.3403 17.9762C37.0977 18.1269 37.7652 18.5031 38.4471 18.8534C38.6939 18.977 38.6939 18.977 38.9456 19.1031C39.2917 19.2771 39.6373 19.4522 39.9822 19.6284C40.5115 19.8986 41.0427 20.1648 41.5742 20.4305C41.9105 20.6001 42.2468 20.77 42.5829 20.9401C42.742 21.02 42.9012 21.0999 43.0652 21.1823C43.2118 21.2575 43.3584 21.3327 43.5095 21.4103C43.6388 21.4761 43.7681 21.5418 43.9013 21.6096C44.2148 21.8066 44.2148 21.8066 44.5156 22.2578C44.5963 23.1048 44.5963 23.1048 44.5156 23.4609C44.1198 23.9088 43.7326 24.192 43.2022 24.4621C43.0616 24.5343 42.921 24.6065 42.7762 24.6809C42.6251 24.7568 42.4741 24.8326 42.3185 24.9108C42.162 24.99 42.0055 25.0693 41.8442 25.151C41.5133 25.3179 41.1821 25.4842 40.8506 25.65C40.3449 25.9034 39.8413 26.1607 39.3377 26.4182C39.0155 26.5802 38.6932 26.7419 38.3708 26.9035C38.221 26.9805 38.0711 27.0576 37.9168 27.137C37.0693 27.5552 36.4403 27.8238 35.4922 27.6719C35.0914 27.3626 34.913 27.184 34.8142 26.6823C34.8138 26.5358 34.8133 26.3893 34.8128 26.2384C34.8109 26.0718 34.809 25.9052 34.807 25.7335C34.8083 25.5543 34.8095 25.3751 34.8107 25.1904C34.8102 25.0058 34.8096 24.8211 34.809 24.6309C34.8086 24.2405 34.8097 23.8501 34.8122 23.4597C34.8154 22.8616 34.8122 22.2638 34.8084 21.6656C34.8088 21.2865 34.8095 20.9074 34.8107 20.5283C34.8095 20.3491 34.8083 20.1698 34.807 19.9852C34.8089 19.8186 34.8108 19.6519 34.8128 19.4803C34.8133 19.3338 34.8137 19.1873 34.8142 19.0364C34.9775 18.2069 35.5274 17.9319 36.3403 17.9762ZM37.2969 21.3554C37.2969 22.348 37.2969 23.3406 37.2969 24.3633C38.0471 24.1173 38.0471 24.1173 38.7479 23.8028C38.84 23.7563 38.9321 23.7098 39.027 23.6618C39.1198 23.6141 39.2127 23.5664 39.3083 23.5173C39.4047 23.4685 39.501 23.4196 39.6003 23.3693C39.8354 23.25 40.0701 23.1299 40.3047 23.0097C40.3047 22.9105 40.3047 22.8112 40.3047 22.709C39.8603 22.4824 39.4152 22.2572 38.97 22.0322C38.8434 21.9677 38.7168 21.9031 38.5864 21.8366C38.4046 21.745 38.4046 21.745 38.2192 21.6515C38.1074 21.5948 37.9955 21.5381 37.8803 21.4797C37.6032 21.3353 37.6032 21.3353 37.2969 21.3554Z" fill="white"/>
</svg>
