<svg width="68" height="68" viewBox="0 0 68 68" fill="none" xmlns="http://www.w3.org/2000/svg">
<g clip-path="url(#clip0_284_98)">
<path d="M63.6703 43.6555H50.3492L54.4664 24.3446H63.6836C66.0742 24.3047 67.9734 22.3258 67.9336 19.9485C67.8937 17.6243 66.0078 15.7383 63.6836 15.6985H56.3125L58.5437 5.23286C59.0351 2.89536 57.5476 0.597708 55.2102 0.106302C52.8594 -0.398386 50.5617 1.08911 50.0703 3.42661L47.4539 15.6985H28.3422L30.5734 5.23286C31.0914 2.89536 29.6172 0.597708 27.293 0.0797393C24.9687 -0.43823 22.6578 1.03599 22.1398 3.36021C22.1398 3.38677 22.1266 3.41333 22.1266 3.4399L19.5102 15.7118H4.32969C1.93906 15.7516 0.0398429 17.7305 0.0796867 20.1079C0.11953 22.4321 2.00547 24.318 4.32969 24.3579H17.6641L13.5469 43.6555H4.32969C1.93906 43.6954 0.0398429 45.6743 0.0796867 48.0516C0.11953 50.3758 2.00547 52.2618 4.32969 52.3016H11.7008L9.46953 62.7672C8.97812 65.1047 10.4656 67.4024 12.8031 67.8938C15.1406 68.3852 17.4383 66.8977 17.9297 64.5602L20.5461 52.2883H39.6711L37.4398 62.754C36.9484 65.0915 38.4359 67.3891 40.7734 67.8805C43.1109 68.3719 45.4086 66.8844 45.9 64.5469L48.5164 52.2751H63.6836C66.0742 52.2352 67.9734 50.2563 67.9336 47.879C67.8805 45.5813 66.0078 43.6954 63.6703 43.6555ZM22.3789 43.6555L26.4961 24.3446H45.6211L41.5039 43.6555H22.3789Z" fill="white"/>
</g>
<defs>
<clipPath id="clip0_284_98">
<rect width="68" height="68" fill="white"/>
</clipPath>
</defs>
</svg>
