<svg width="24" height="24" viewBox="0 0 24 24" fill="none" xmlns="http://www.w3.org/2000/svg">
<rect width="24" height="24" fill="white"/>
<path d="M3.0744 9.46253C2.424 9.73553 2.0203 10.2215 2.0142 10.9095C2.01 11.3905 2.3346 12.0365 2.985 12.3005C3.2529 12.4095 7.0144 12.9155 7.0144 12.9155C7.0144 12.9155 8.01 16.0625 8.3688 17.1685C8.4727 17.4885 8.5319 17.6455 8.7599 17.8545C9.1467 18.2085 9.8006 18.0976 10.0834 17.8136C10.8316 17.0636 12.0142 15.9065 12.0142 15.9065L12.5119 16.3115C12.5119 16.3115 14.722 18.0745 15.9301 18.9045C16.6414 19.3935 17.1351 19.9035 17.9357 19.9065C18.3435 19.9085 18.9976 19.7055 19.43 19.2105C19.7157 18.8835 19.899 18.3605 19.9699 17.8915C20.1311 16.8265 22.0222 5.31054 22.0142 4.90753C22.0014 4.26453 21.4605 3.90253 21.0109 3.90653C20.7285 3.90953 20.4958 3.99154 19.978 4.14954C15.9726 5.37254 3.3397 9.35153 3.0744 9.46253ZM18.0142 6.90653C18.0142 6.90653 12.7362 11.5005 10.6271 13.6145C9.9514 14.2915 9.9037 15.4535 9.9037 15.4535L8.8135 11.9655L18.0142 6.90653Z" fill="#F05A24"/>
</svg>
