<svg width="24" height="24" viewBox="0 0 24 24" fill="none" xmlns="http://www.w3.org/2000/svg">
<path d="M11.9973 1.95312C8.13131 1.95312 4.99731 5.08713 4.99731 8.95312C4.99731 10.1911 5.3313 11.3701 5.9353 12.4221C5.9463 12.4421 7.82931 15.4011 7.99731 15.9531H15.9973C16.1623 15.4041 18.0393 12.4661 18.0283 12.4841C18.6513 11.4211 18.9973 10.2111 18.9973 8.95312C18.9973 5.08713 15.8633 1.95312 11.9973 1.95312ZM11.9973 5.95312C12.5493 5.95312 12.9973 6.40112 12.9973 6.95312C12.9973 7.50513 12.5493 7.95312 11.9973 7.95312C11.4453 7.95312 10.9973 8.40112 10.9973 8.95312C10.9973 9.50513 10.5493 9.95312 9.99731 9.95312C9.44531 9.95312 8.99731 9.50513 8.99731 8.95312C8.99731 7.29612 10.3403 5.95312 11.9973 5.95312ZM7.99731 17.9531C7.99731 20.1621 9.78831 21.9531 11.9973 21.9531C14.2063 21.9531 15.9973 20.1621 15.9973 17.9531H7.99731Z" fill="#F05A24"/>
</svg>
