<svg width="85" height="67" viewBox="0 0 85 67" fill="none" xmlns="http://www.w3.org/2000/svg">
<g clip-path="url(#clip0_256_71)">
<path d="M40.1558 0.336959L3.75191 0.0272557L3.43971 36.7256L21.2423 36.8771C21.2482 37.224 21.272 37.5605 21.2689 37.9178C21.1601 50.7076 12.3646 60.1128 1.57296 60.021C1.06711 60.0167 0.0376437 60.0079 0.0376437 60.0079L0.00858643 63.4234C3.01453 64.7943 8.03152 65.5517 12.5665 65.5902C27.4848 65.7172 39.6891 53.1144 39.8395 35.4378L40.1381 0.336808L40.1558 0.336959Z" fill="#29292B" fill-opacity="0.72"/>
<path d="M84.9731 0.718232L48.5781 0.408603L48.2659 37.107L66.0685 37.2584C66.0744 37.6053 66.0982 37.9418 66.0951 38.2991C65.9863 51.0889 57.1907 60.4941 46.3991 60.4023C45.8933 60.398 44.8638 60.3893 44.8638 60.3893L44.8348 63.8048C47.8407 65.1756 52.8577 65.933 57.3926 65.9716C72.311 66.0985 84.5152 53.4957 84.6656 35.8191L84.9643 0.718156L84.9731 0.718232Z" fill="#29292B" fill-opacity="0.72"/>
</g>
<defs>
<clipPath id="clip0_256_71">
<rect width="84.419" height="65.4961" fill="white" transform="translate(0.55719) rotate(0.487428)"/>
</clipPath>
</defs>
</svg>
