<svg width="24" height="24" viewBox="0 0 24 24" fill="none" xmlns="http://www.w3.org/2000/svg">
<path d="M11.6228 2.03412C10.7438 2.40912 5.4698 4.66013 4.5918 5.03513C4.2228 5.19213 3.9978 5.54014 3.9978 5.94113C3.9978 10.3211 4.1728 12.2811 4.9668 14.5381C6.0058 17.4931 8.0458 19.8481 11.4978 21.8211C11.8048 21.9971 12.1908 21.9971 12.4978 21.8211C15.9808 19.8301 18.0298 17.4831 19.0598 14.5381C19.8438 12.2971 19.9978 10.4331 19.9978 5.94113C19.9978 5.54214 19.7708 5.19313 19.4038 5.03513L12.4358 2.03412C12.1838 1.92613 11.8748 1.92613 11.6228 2.03412Z" fill="#F05A24"/>
</svg>
