<svg width="52" height="44" viewBox="0 0 52 44" fill="none" xmlns="http://www.w3.org/2000/svg">
<rect width="51.7173" height="43.4896" rx="21.7448" fill="white"/>
<path d="M25.3129 11.1449L15.6953 15.5419C14.7721 15.9639 14.7721 17.0436 15.6953 17.4656C16.8975 18.0152 24.1107 21.313 25.3129 21.8626C25.7347 22.0557 26.2636 22.0557 26.6868 21.8626L36.3044 17.4656C37.2277 17.0436 37.2277 15.9639 36.3044 15.5419L26.6868 11.1449C26.265 10.9517 25.7361 10.9517 25.3129 11.1449ZM25.9999 13.3777L32.8269 16.5037L25.9999 19.6298C24.582 18.9814 21.4851 17.561 19.1728 16.5037L25.9999 13.3777ZM16.0388 20.935C15.6995 21.0091 15.3683 21.1868 15.1801 21.4504C14.8037 21.9775 15.0372 22.6607 15.6953 22.9618L25.3129 27.3589C25.7347 27.552 26.2636 27.552 26.6868 27.3589L36.3044 22.9618C36.9639 22.6607 37.1961 21.9775 36.8196 21.4504C36.4431 20.9233 35.5899 20.737 34.9304 21.0382L25.9999 25.1261L17.0693 21.0382C16.7395 20.8876 16.3782 20.8611 16.0388 20.935ZM16.0388 26.4313C15.6995 26.5054 15.3683 26.683 15.1801 26.9466C14.8037 27.4737 15.0372 28.1569 15.6953 28.4581L25.3129 32.8551C25.7347 33.0483 26.2636 33.0483 26.6868 32.8551L36.3044 28.4581C36.9639 28.1569 37.1961 27.4737 36.8196 26.9466C36.4431 26.4196 35.5899 26.2332 34.9304 26.5344L25.9999 30.6223L17.0693 26.5344C16.7395 26.3838 16.3782 26.3573 16.0388 26.4313Z" fill="black"/>
</svg>
