<svg width="94" height="94" viewBox="0 0 94 94" fill="none" xmlns="http://www.w3.org/2000/svg">
<path d="M74.73 33.37C73.32 24.91 67.21 17.86 58.28 15.04C48.88 12.22 38.54 15.98 32.9 23.5C27.73 23.5 23.03 25.38 19.74 29.14C15.98 32.9 14.1 37.6 14.1 42.77C6.11 44.65 0 52.17 0 61.1C0 71.44 8.46 79.9 18.8 79.9H70.5C83.66 79.9 94 69.56 94 56.4C94 44.65 85.54 35.25 74.73 33.37ZM70.5 70.5H18.8C13.63 70.5 9.4 66.27 9.4 61.1C9.4 55.93 13.63 51.7 18.8 51.7H19.27C21.15 51.7 22.56 51.23 23.5 49.82C24.44 48.41 24.91 47 23.97 45.59C23.03 41.83 23.5 38.07 26.32 35.72C28.2 33.37 31.49 32.43 34.31 32.9C36.19 33.37 38.07 32.43 39.01 30.55C42.3 24.91 48.88 22.09 55.46 23.97C61.57 25.85 65.8 31.49 65.8 37.6C65.8 39.01 66.27 39.95 67.21 40.89C68.15 41.83 69.09 42.3 70.5 42.3C78.02 42.3 84.6 48.88 84.6 56.4C84.6 64.39 78.49 70.5 70.5 70.5Z" fill="white"/>
</svg>
