<svg width="82" height="82" viewBox="0 0 82 82" fill="none" xmlns="http://www.w3.org/2000/svg">
<g clip-path="url(#clip0_358_167)">
<path d="M17.9992 -0.062125C18.1587 -0.0629875 18.3183 -0.06385 18.4828 -0.0647387C19.0134 -0.0670158 19.5439 -0.0658903 20.0745 -0.0647471C20.4566 -0.0656611 20.8387 -0.0667767 21.2209 -0.068078C22.1486 -0.0706494 23.0763 -0.0709671 24.004 -0.070126C24.7586 -0.0694769 25.5132 -0.069712 26.2679 -0.0705661C26.3755 -0.070686 26.4832 -0.0708058 26.5942 -0.0709293C26.813 -0.0711746 27.0318 -0.071421 27.2506 -0.0716685C29.2994 -0.0738636 31.3482 -0.0729978 33.397 -0.0711583C35.2681 -0.0695681 37.1392 -0.0716398 39.0102 -0.075472C40.9352 -0.0793846 42.8601 -0.0809156 44.7851 -0.0798518C45.8643 -0.0792939 46.9435 -0.0796411 48.0227 -0.0824545C49.0378 -0.0849368 50.0529 -0.0842932 51.068 -0.0812846C51.4396 -0.0806956 51.8112 -0.0811882 52.1828 -0.0828678C55.1709 -0.095338 57.262 0.180435 59.5381 2.2922C61.4425 4.30436 61.5707 6.49566 61.5469 9.11511C61.546 9.40726 61.5453 9.69941 61.5449 9.99156C61.543 10.7556 61.5383 11.5197 61.533 12.2837C61.5281 13.0654 61.5259 13.847 61.5235 14.6286C61.5183 16.1587 61.5101 17.6887 61.5 19.2187C61.6062 19.2173 61.7124 19.2159 61.8219 19.2144C62.9286 19.2002 64.0354 19.1906 65.1422 19.1835C65.5551 19.1803 65.968 19.1759 66.3809 19.1704C66.9749 19.1626 67.5688 19.159 68.1628 19.1562C68.347 19.1528 68.5312 19.1495 68.721 19.1461C69.6985 19.1459 70.3656 19.153 71.1094 19.8593C71.8319 20.7123 71.8413 21.3944 71.8313 22.4616C71.8328 22.709 71.8329 22.709 71.8344 22.9614C71.8369 23.514 71.8349 24.0664 71.8329 24.619C71.8338 25.0152 71.8349 25.4114 71.8363 25.8076C71.8389 26.7719 71.8385 27.7362 71.8367 28.7005C71.8352 29.4843 71.835 30.2681 71.8357 31.0519C71.8358 31.1635 71.8359 31.2751 71.836 31.3901C71.8362 31.6169 71.8364 31.8436 71.8366 32.0703C71.8385 34.1958 71.8364 36.3212 71.8329 38.4467C71.8301 40.27 71.8306 42.0933 71.8335 43.9165C71.8369 46.0345 71.8383 48.1524 71.8363 50.2703C71.8361 50.4962 71.8359 50.7221 71.8357 50.948C71.8356 51.1147 71.8356 51.1147 71.8354 51.2848C71.8349 52.0675 71.8358 52.8503 71.8373 53.633C71.8393 54.6868 71.8379 55.7405 71.8342 56.7942C71.8333 57.1812 71.8336 57.5682 71.835 57.9552C71.8367 58.483 71.8345 59.0106 71.8313 59.5384C71.8335 59.7687 71.8335 59.7687 71.8357 60.0038C71.8251 60.905 71.7138 61.427 71.1094 62.1406C70.2347 62.9713 69.2997 62.8642 68.1628 62.8438C67.9721 62.8429 67.7815 62.842 67.5852 62.841C66.9781 62.8374 66.3712 62.8294 65.7642 62.8212C65.3519 62.818 64.9396 62.8151 64.5273 62.8125C63.5182 62.8054 62.5091 62.7947 61.5 62.7812C61.5014 62.9415 61.5028 63.1017 61.5043 63.2668C61.5174 64.7841 61.5269 66.3013 61.5332 67.8186C61.5365 68.5984 61.541 69.3783 61.5483 70.1581C61.5553 70.912 61.5591 71.6659 61.5608 72.4198C61.562 72.7061 61.5643 72.9924 61.5677 73.2787C61.5995 76.004 61.113 77.9845 59.2078 80.038C57.6596 81.5033 55.847 82.0759 53.7508 82.062C53.5913 82.0629 53.4317 82.0638 53.2672 82.0647C52.7366 82.0669 52.2061 82.0658 51.6755 82.0647C51.2934 82.0656 50.9113 82.0667 50.5291 82.068C49.6014 82.0706 48.6737 82.0709 47.746 82.07C46.9914 82.0694 46.2368 82.0696 45.4822 82.0705C45.3745 82.0706 45.2668 82.0707 45.1558 82.0708C44.937 82.0711 44.7182 82.0713 44.4994 82.0716C42.4506 82.0738 40.4018 82.0729 38.353 82.0711C36.4819 82.0695 34.6108 82.0716 32.7398 82.0754C30.8148 82.0793 28.8899 82.0808 26.9649 82.0798C25.8857 82.0792 24.8065 82.0796 23.7273 82.0824C22.7122 82.0849 21.6971 82.0842 20.682 82.0812C20.3104 82.0806 19.9388 82.0811 19.5672 82.0828C16.5791 82.0953 14.488 81.8195 12.2119 79.7077C10.3772 77.7692 10.1783 75.6249 10.1879 73.0834C10.1872 72.7954 10.1864 72.5073 10.1853 72.2193C10.183 71.4305 10.1837 70.6417 10.1848 69.8528C10.1856 69.001 10.1836 68.1493 10.182 67.2975C10.1792 65.6298 10.1791 63.9621 10.1799 62.2945C10.1806 60.9388 10.1803 59.5832 10.1795 58.2275C10.1794 58.0345 10.1792 57.8415 10.1791 57.6426C10.1789 57.2504 10.1786 56.8583 10.1784 56.4661C10.1762 52.7896 10.177 49.113 10.1789 45.4364C10.1805 42.074 10.1784 38.7116 10.1746 35.3492C10.1707 31.8954 10.1691 28.4415 10.1702 24.9877C10.1707 23.0491 10.1704 21.1106 10.1676 19.172C10.1652 17.5218 10.1651 15.8716 10.1679 14.2213C10.1693 13.3797 10.1696 12.5381 10.1672 11.6964C10.165 10.9252 10.1657 10.1541 10.1688 9.38295C10.1694 9.10469 10.1689 8.82642 10.1673 8.54816C10.1524 5.89269 10.7037 3.94353 12.5422 1.96188C14.0904 0.496669 15.903 -0.0759373 17.9992 -0.062125ZM16.0256 6.04586C15.4526 6.94883 15.335 7.80618 15.3342 8.86189C15.3337 8.97524 15.3332 9.08859 15.3327 9.20538C15.3314 9.58424 15.3323 9.96306 15.3333 10.3419C15.3328 10.6167 15.3321 10.8914 15.3314 11.1662C15.3297 11.9205 15.3301 12.6748 15.3308 13.4291C15.3312 14.2429 15.3297 15.0567 15.3285 15.8705C15.3265 17.4645 15.3262 19.0586 15.3266 20.6526C15.3269 21.9482 15.3266 23.2437 15.3259 24.5393C15.3258 24.7237 15.3257 24.908 15.3256 25.0979C15.3254 25.4724 15.3252 25.8469 15.325 26.2214C15.3233 29.7339 15.3236 33.2464 15.3246 36.7589C15.3254 39.9725 15.3236 43.1861 15.3206 46.3997C15.3175 49.6992 15.3162 52.9986 15.3168 56.2981C15.3171 58.1506 15.3167 60.0031 15.3144 61.8556C15.3125 63.4327 15.3123 65.0097 15.3142 66.5868C15.3152 67.3914 15.3153 68.196 15.3134 69.0006C15.3117 69.7374 15.3122 70.4741 15.3144 71.2109C15.3148 71.4772 15.3145 71.7435 15.3132 72.0098C15.2357 74.1245 15.2357 74.1245 16.0597 76.0048C17.0154 76.8929 18.1965 76.9222 19.4246 76.9167C19.571 76.9173 19.7175 76.9179 19.8683 76.9186C20.3573 76.9202 20.8462 76.9196 21.3351 76.9189C21.6864 76.9196 22.0377 76.9205 22.3889 76.9214C23.3419 76.9236 24.2949 76.9237 25.2479 76.9233C26.0439 76.9231 26.8399 76.9239 27.6359 76.9246C29.6214 76.9265 31.6069 76.9264 33.5924 76.9253C35.3147 76.9245 37.037 76.9263 38.7593 76.9294C40.5298 76.9325 42.3004 76.9337 44.0709 76.9332C45.0641 76.9329 46.0573 76.9333 47.0505 76.9355C47.9846 76.9376 48.9187 76.9372 49.8528 76.9352C50.1952 76.9348 50.5376 76.9352 50.8799 76.9365C51.3482 76.9382 51.8164 76.9369 52.2848 76.9349C52.4194 76.9361 52.554 76.9372 52.6927 76.9385C53.6643 76.9296 54.7252 76.817 55.5094 76.1903C56.3088 75.3118 56.4154 74.268 56.4114 73.1267C56.4114 72.9577 56.4114 72.9577 56.4115 72.7853C56.4113 72.417 56.4088 72.0488 56.4063 71.6805C56.4057 71.4236 56.4052 71.1666 56.4049 70.9097C56.4037 70.2365 56.4005 69.5633 56.397 68.89C56.3937 68.2018 56.3923 67.5137 56.3906 66.8255C56.3872 65.4774 56.3818 64.1293 56.375 62.7812C56.2676 62.781 56.1602 62.7807 56.0495 62.7805C53.425 62.7745 50.8005 62.7651 48.1759 62.7518C46.9067 62.7454 45.6375 62.7402 44.3682 62.7378C43.2608 62.7357 42.1534 62.7314 41.0459 62.7244C40.4606 62.7208 39.8753 62.7183 39.29 62.7184C33.6534 62.7183 33.6534 62.7183 31.1804 61.3798C31.0223 61.2973 31.0223 61.2973 30.861 61.2131C29.9039 60.7004 29.0296 60.1037 28.1875 59.4179C28.0568 59.3135 27.9261 59.209 27.7915 59.1014C25.8145 57.4283 24.3712 55.3133 23.2227 53.0117C23.1717 52.91 23.1208 52.8083 23.0683 52.7036C22.1862 50.9062 21.6139 49.0274 21.1406 47.0859C21.1117 46.9708 21.0827 46.8558 21.0529 46.7373C20.1885 43.1304 20.2365 38.5063 21.1406 34.914C21.1733 34.78 21.206 34.6459 21.2396 34.5078C22.114 31.0015 23.5382 27.5638 25.9453 24.8242C26.0514 24.6951 26.1575 24.5661 26.2669 24.4332C28.5284 21.7669 31.6215 19.9801 35.0742 19.3789C35.3756 19.3633 35.6774 19.3555 35.9792 19.3535C36.2497 19.3512 36.2497 19.3512 36.5256 19.3488C36.7219 19.3479 36.9182 19.3469 37.1205 19.346C37.3284 19.3444 37.5362 19.3428 37.7504 19.3412C38.3192 19.3369 38.8879 19.3335 39.4567 19.3303C40.0515 19.3268 40.6464 19.3224 41.2412 19.3181C42.3671 19.3101 43.493 19.3029 44.6189 19.296C45.9009 19.2881 47.1829 19.2793 48.4649 19.2704C51.1016 19.2522 53.7383 19.2351 56.375 19.2187C56.3862 17.7401 56.3947 16.2616 56.3999 14.7829C56.4024 14.0962 56.4058 13.4096 56.4112 12.7229C56.4165 12.0593 56.4193 11.3958 56.4206 10.7322C56.4215 10.4799 56.4232 10.2277 56.4258 9.9754C56.5116 7.86732 56.5116 7.86732 55.6903 5.995C54.7344 5.10707 53.5535 5.07772 52.3254 5.08321C52.179 5.0826 52.0326 5.08199 51.8817 5.08136C51.3927 5.07971 50.9038 5.08034 50.4149 5.08098C50.0636 5.08028 49.7123 5.07945 49.3611 5.0785C48.4081 5.07635 47.4551 5.07626 46.5021 5.07666C45.7061 5.07684 44.9101 5.07605 44.1141 5.07529C42.1286 5.07341 40.1431 5.07354 38.1576 5.07457C36.4353 5.0754 34.713 5.0736 32.9908 5.07055C31.2202 5.06745 29.4496 5.06618 27.6791 5.06673C26.6859 5.06702 25.6927 5.0666 24.6995 5.06437C23.7654 5.06236 22.8313 5.06267 21.8972 5.06476C21.5548 5.06514 21.2124 5.0647 20.8701 5.06338C20.4018 5.0617 19.9336 5.063 19.4652 5.06503C19.3306 5.06385 19.196 5.06267 19.0573 5.06145C17.9765 5.07126 16.7891 5.20678 16.0256 6.04586ZM48.207 24.3437C48.4899 24.9095 48.7639 25.2898 49.158 25.7751C52.0303 29.5027 53.6566 34.6106 53.6849 39.3064C53.686 39.4315 53.6871 39.5566 53.6883 39.6854C53.7247 44.8895 53.7247 44.8895 53.1719 47.0859C53.1392 47.2199 53.1065 47.354 53.0729 47.4921C52.215 50.9325 50.8426 54.3264 48.4717 57.0093C48.1734 57.3073 48.1734 57.3073 48.207 57.6562C50.9553 57.6562 53.7036 57.6562 56.5352 57.6562C56.8523 56.7577 57.1694 55.8593 57.4961 54.9335C58.2531 53.4567 59.0396 52.2527 60.2188 51.0898C60.3286 50.9783 60.4384 50.8668 60.5516 50.752C62.2955 49.0856 64.3525 48.3684 66.625 47.5664C66.625 43.2325 66.625 38.8987 66.625 34.4336C65.7265 34.1164 64.828 33.7993 63.9023 33.4726C60.5566 31.8346 58.2889 29.2946 57.0156 25.7851C56.8571 25.3095 56.6985 24.8338 56.5352 24.3437C53.7869 24.3437 51.0386 24.3437 48.207 24.3437ZM62.1406 24.3437C62.4526 25.9036 63.6547 27.2555 64.9527 28.1493C65.7321 28.6681 65.7321 28.6681 66.625 28.8281C66.625 27.3482 66.625 25.8684 66.625 24.3437C65.1452 24.3437 63.6653 24.3437 62.1406 24.3437ZM30.75 27.2265C28.4616 29.4543 27.0425 32.4905 26.2656 35.5546C26.2177 35.7338 26.1698 35.913 26.1205 36.0977C24.939 41.4143 25.7714 47.4338 28.5967 52.0952C30.1698 54.5584 32.3721 56.5896 35.2234 57.4267C36.9432 57.7866 38.9602 57.6552 40.5195 56.8554C40.6612 56.7912 40.8028 56.727 40.9487 56.6609C44.2787 55.0336 46.2733 51.6293 47.492 48.2606C49.3294 42.8859 49.0215 36.6668 46.6023 31.5238C45.0334 28.3502 42.6819 25.8569 39.3084 24.614C36.038 23.9599 33.1585 24.9487 30.75 27.2265ZM63.6921 54.9035C62.9975 55.6368 62.1406 56.6102 62.1406 57.6562C63.6205 57.6562 65.1003 57.6562 66.625 57.6562C66.625 56.1764 66.625 54.6965 66.625 53.1718C65.5345 53.1718 64.4561 54.1794 63.6921 54.9035Z" fill="white"/>
<path d="M38.1172 26.9062C38.9013 27.2703 39.3651 27.7189 39.7187 28.5078C39.7707 29.2583 39.7558 29.9989 39.7187 30.75C39.8695 30.7425 40.0202 30.7351 40.1754 30.7274C41.8053 30.6802 41.8053 30.6802 42.5415 31.0102C43.2878 31.7565 43.6029 32.2452 43.6426 33.3125C43.6121 34.132 43.503 34.6226 42.9219 35.2343C42.2097 35.7916 41.7454 35.9551 40.8442 35.9613C40.6342 35.965 40.4241 35.9687 40.2077 35.9726C39.988 35.9736 39.7683 35.9744 39.5486 35.9751C39.1162 35.9785 38.684 35.9845 38.2517 35.9913C37.9652 35.9928 37.9652 35.9928 37.673 35.9942C37.162 36.0347 36.8088 36.1202 36.3555 36.3554C36.1314 36.8037 36.1548 37.141 36.1953 37.6367C36.4854 38.0832 36.6999 38.1226 37.2269 38.241C37.4468 38.2741 37.6668 38.3062 37.887 38.3374C39.8208 38.661 41.389 39.4607 42.5734 41.0788C43.6724 42.8297 43.8555 44.8023 43.458 46.8138C42.923 48.4372 41.8036 49.7124 40.3594 50.6093C39.9959 50.7194 39.9959 50.7194 39.7187 50.7695C39.7262 50.9549 39.7336 51.1403 39.7413 51.3313C39.7473 51.5778 39.7531 51.8243 39.7588 52.0708C39.7642 52.1926 39.7695 52.3144 39.7751 52.4399C39.7899 53.3004 39.6439 53.7675 39.0781 54.4531C38.4664 55.0342 37.9758 55.1434 37.1562 55.1738C36.089 55.1342 35.6003 54.819 34.854 54.0727C34.4443 53.1588 34.5451 52.2363 34.5937 51.25C34.443 51.2574 34.2923 51.2648 34.1371 51.2725C32.5072 51.3197 32.5072 51.3197 31.771 50.9897C31.0247 50.2434 30.7095 49.7547 30.6699 48.6875C30.7003 47.8679 30.8095 47.3773 31.3906 46.7656C32.1028 46.2083 32.5671 46.0448 33.4683 46.0386C33.6783 46.0349 33.8884 46.0312 34.1048 46.0274C34.3245 46.0263 34.5442 46.0255 34.7639 46.0249C35.1963 46.0214 35.6285 46.0154 36.0608 46.0086C36.2518 46.0076 36.4428 46.0067 36.6395 46.0057C37.1505 45.9653 37.5037 45.8797 37.957 45.6445C38.1811 45.1963 38.1576 44.8589 38.1172 44.3632C37.8271 43.9167 37.6126 43.8773 37.0856 43.7589C36.8657 43.7258 36.6457 43.6937 36.4255 43.6626C34.4917 43.3389 32.9235 42.5392 31.7391 40.9211C30.6401 39.1702 30.457 37.1976 30.8545 35.1862C31.3895 33.5627 32.5089 32.2875 33.9531 31.3906C34.3166 31.2805 34.3166 31.2805 34.5937 31.2304C34.5863 31.045 34.5789 30.8596 34.5712 30.6686C34.5652 30.4221 34.5594 30.1756 34.5537 29.9292C34.5483 29.8073 34.543 29.6855 34.5374 29.56C34.5226 28.6996 34.6686 28.2324 35.2344 27.5468C36.0786 26.7448 37.0134 26.7576 38.1172 26.9062Z" fill="white"/>
<path d="M31.0002 69.1045C31.1176 69.1034 31.2349 69.1023 31.3557 69.1011C31.7411 69.0983 32.1263 69.1002 32.5117 69.1024C32.7809 69.1019 33.0502 69.1013 33.3194 69.1005C33.8827 69.0996 34.4459 69.1009 35.0091 69.1039C35.7297 69.1076 36.4502 69.1055 37.1707 69.1016C37.7264 69.0993 38.282 69.1001 38.8376 69.1017C39.1033 69.1021 39.3689 69.1016 39.6345 69.1001C40.0063 69.0985 40.3779 69.101 40.7497 69.1045C40.9609 69.1051 41.1721 69.1056 41.3897 69.1061C42.2376 69.2268 42.7229 69.6186 43.3022 70.2285C43.6863 71.0557 43.6832 71.814 43.5625 72.7109C43.1927 73.5074 42.7181 73.8851 41.9609 74.3124C41.3897 74.3938 41.3897 74.3938 40.7497 74.3953C40.6324 74.3965 40.5151 74.3976 40.3942 74.3987C40.0089 74.4015 39.6237 74.3997 39.2383 74.3975C38.9691 74.398 38.6998 74.3986 38.4306 74.3994C37.8673 74.4003 37.3041 74.399 36.7408 74.396C36.0203 74.3923 35.2998 74.3944 34.5792 74.3982C34.0236 74.4006 33.468 74.3998 32.9123 74.3982C32.6467 74.3977 32.3811 74.3983 32.1155 74.3997C31.7436 74.4014 31.372 74.3989 31.0002 74.3953C30.789 74.3948 30.5778 74.3943 30.3602 74.3938C29.5123 74.273 29.0271 73.8813 28.4477 73.2714C28.0637 72.4442 28.0668 71.6858 28.1875 70.789C28.7615 69.5526 29.6748 69.1077 31.0002 69.1045Z" fill="white"/>
<path d="M21.4609 7.68749C22.2432 8.0507 22.6993 8.50674 23.0625 9.28905C23.1832 10.1859 23.1863 10.9443 22.8022 11.7715C22.0697 12.5425 21.5716 12.8528 20.5 12.8926C19.4283 12.8528 18.9302 12.5425 18.1977 11.7715C17.8137 10.9443 17.8168 10.1859 17.9375 9.28905C18.6547 7.7444 19.8829 7.47506 21.4609 7.68749Z" fill="white"/>
</g>
<defs>
<clipPath id="clip0_358_167">
<rect width="82" height="82" fill="white"/>
</clipPath>
</defs>
</svg>
