<svg width="24" height="24" viewBox="0 0 24 24" fill="none" xmlns="http://www.w3.org/2000/svg">
<path d="M4.92262 3.74854C3.2909 3.74854 1.96838 5.03737 1.96838 6.62732V16.2233C1.96838 18.1425 2.95313 19.1021 4.92262 19.1021H18.7091C20.6786 19.1021 21.6633 18.1425 21.6633 16.2233V8.54652C21.6633 8.01653 21.2221 7.58692 20.6786 7.58692H19.6938V4.70813C19.6938 4.17815 19.2527 3.74854 18.7091 3.74854H4.92262ZM4.92262 5.66773H17.7243V7.58692H4.92262C4.37904 7.58692 3.93788 7.15731 3.93788 6.62732C3.93788 6.09734 4.37904 5.66773 4.92262 5.66773ZM16.7396 11.4253C17.2832 11.4253 17.7243 11.8549 17.7243 12.3849C17.7243 12.9149 17.2832 13.3445 16.7396 13.3445C16.196 13.3445 15.7548 12.9149 15.7548 12.3849C15.7548 11.8549 16.196 11.4253 16.7396 11.4253Z" fill="#F05A24"/>
</svg>
